<?xml version="1.0" encoding="utf-8"?>
<!-- Generator: Adobe Illustrator 23.0.3, SVG Export Plug-In . SVG Version: 6.00 Build 0)  -->
<svg version="1.1" id="Layer_1" xmlns="http://www.w3.org/2000/svg" xmlns:xlink="http://www.w3.org/1999/xlink" x="0px" y="0px"
	 viewBox="0 0 243.6 224.4" style="enable-background:new 0 0 243.6 224.4;" xml:space="preserve">
<style type="text/css">
	.st0{opacity:0.7;fill:none;stroke:#B0AFC7;stroke-width:2;stroke-miterlimit:10;enable-background:new    ;}
	.st1{opacity:0.7;fill:none;stroke:#E1C3C8;stroke-width:2;stroke-miterlimit:10;enable-background:new    ;}
	.st2{opacity:0.4;fill:none;stroke:#F7DFD3;stroke-width:2;stroke-miterlimit:10;enable-background:new    ;}
	.st3{fill:#607EAF;}
	.st4{fill:#FFFFFF;}
	.st5{fill:none;}
</style>
<g id="Background_rings">
	<ellipse class="st0" cx="116.4" cy="115.1" rx="105" ry="102.9"/>
	<ellipse class="st1" cx="124" cy="112.8" rx="105.5" ry="103.4"/>
	<ellipse class="st2" cx="121.5" cy="113.4" rx="102.9" ry="100.8"/>
</g>
<g id="Photo_World">
</g>
<g id="Text">
	<g>
		<g>
			<path class="st3" d="M27,174.4c-0.9,0-1.8-0.2-2.9-0.5c-1-0.4-2.1-0.8-3.2-1.3s-2.2-1-3.3-1.5c-0.6,0.7-1.2,1.2-1.9,1.6
				c-0.6,0.4-1.4,0.6-2.1,0.6c-0.8,0-1.4-0.2-2-0.5c-0.5-0.4-0.9-0.8-1.2-1.3s-0.4-0.9-0.4-1.3c0-0.4,0.2-0.8,0.6-1.1s1.1-0.5,2-0.5
				c0.6,0,1.3,0.1,2.1,0.2c0.8,0.1,1.5,0.3,2.4,0.5c0.6-1,1.1-2.2,1.6-3.5s1-2.8,1.5-4.3s1-3,1.4-4.5c-1.1-0.4-2-0.9-2.6-1.6
				c-0.6-0.7-1-1.5-1-2.3c0-0.4,0.1-0.9,0.3-1.3c0.2-0.4,0.4-0.8,0.8-1.1c0.3-0.3,0.7-0.5,1.2-0.5c-0.2,0.2-0.3,0.6-0.4,1
				c-0.1,0.5-0.1,0.9-0.1,1.2c0,0.9,0.2,1.7,0.6,2.3s0.9,1.1,1.5,1.4c0.5-1.4,1-2.8,1.5-4.1s1.1-2.4,1.7-3.4s1.3-1.8,2.1-2.4
				c0.7-0.6,1.6-0.9,2.5-0.9c0.5,0,1,0.1,1.5,0.3s1,0.6,1.4,1.1s0.6,1.3,0.6,2.2c0,0.8-0.2,1.7-0.5,2.6c-0.3,0.9-0.9,1.8-1.5,2.7
				c-0.7,0.9-1.6,1.5-2.7,2.1s-2.4,0.8-3.8,0.8c0,0-0.1,0-0.2,0s-0.3,0-0.5,0c-0.5,1.5-1,3-1.5,4.5s-1.1,2.9-1.7,4.3
				c-0.6,1.4-1.2,2.6-1.9,3.6c1.1,0.3,2.2,0.7,3.3,1c1.1,0.3,2.2,0.6,3.3,0.9c1.1,0.2,2,0.3,2.9,0.3c0.5,0,1,0,1.4-0.1
				s0.8-0.2,1.2-0.4c-0.4,1.1-0.9,1.9-1.5,2.4C28.7,174.2,27.9,174.4,27,174.4z M13.5,172.1c0.5,0,1-0.1,1.5-0.4
				c0.5-0.3,0.9-0.7,1.3-1.2c-0.7-0.3-1.5-0.6-2.2-0.8s-1.4-0.3-1.9-0.3s-0.8,0.1-0.9,0.2c-0.2,0.1-0.3,0.3-0.3,0.5
				c0,0.4,0.2,0.9,0.7,1.3C12.2,171.9,12.8,172.1,13.5,172.1z M24.1,156.6c1.1,0,2.1-0.3,2.9-0.9c0.9-0.6,1.6-1.4,2.2-2.3
				c0.6-0.9,1.1-1.9,1.4-2.8c0.3-1,0.5-1.8,0.5-2.5s-0.1-1.2-0.4-1.4c-0.3-0.3-0.6-0.4-0.9-0.4c-0.7,0-1.4,0.5-2.1,1.4
				c-0.6,1-1.3,2.2-1.9,3.8C25.4,153.1,24.7,154.8,24.1,156.6z"/>
			<path class="st3" d="M35.9,172.2c-0.9,0-1.6-0.3-2.1-0.9c-0.5-0.6-0.7-1.3-0.7-2.1c0-0.6,0.1-1.2,0.3-2.1
				c0.2-0.8,0.5-1.7,0.8-2.6c0.3-0.9,0.7-1.8,1.2-2.6c0.4-0.8,0.9-1.5,1.4-2s1-0.8,1.5-0.8c0.2,0,0.4,0.1,0.6,0.2
				c0.2,0.1,0.2,0.3,0.2,0.6s-0.2,0.8-0.6,1.4s-0.8,1.4-1.3,2.2s-0.9,1.7-1.3,2.6s-0.6,1.8-0.6,2.6c0,0.9,0.1,1.4,0.4,1.7
				s0.7,0.4,1.3,0.4c0.8,0,1.7-0.4,2.6-1.2s1.9-2.2,2.9-4.3l0.3,0.4c-0.7,2.1-1.7,3.6-3,4.8C38.6,171.7,37.3,172.2,35.9,172.2z
				 M40.2,155.7c-0.4,0-0.7-0.1-1-0.3s-0.5-0.5-0.5-0.9c0-0.5,0.3-0.9,0.9-1.3c0.6-0.4,1.2-0.6,1.7-0.6c0.4,0,0.6,0.1,0.9,0.3
				c0.2,0.2,0.3,0.5,0.3,0.9c0,0.5-0.2,0.9-0.7,1.3C41.3,155.5,40.8,155.7,40.2,155.7z"/>
			<path class="st3" d="M44.3,172.7c-0.7,0-1.3-0.4-1.5-1.1c-0.3-0.7-0.4-1.7-0.4-2.9c0,0,0-0.4,0-1.1c0-0.7,0.1-1.9,0.2-3.6
				c0-0.6,0.1-1.1,0.2-1.3c0.1-0.2,0.4-0.4,0.9-0.4c0.4,0,0.7,0.1,0.8,0.2c0.1,0.2,0.2,0.5,0.2,0.9c0,0.8-0.1,1.7-0.2,2.8
				c-0.1,1.1-0.2,2.1-0.2,3c0,0.7,0.1,1.2,0.2,1.5c0.1,0.3,0.3,0.5,0.6,0.5c0.4,0,0.9-0.2,1.4-0.7s1.1-1.1,1.6-1.9
				c0.6-0.8,1.1-1.7,1.6-2.6c0.5-0.9,0.9-1.8,1.3-2.6c0-1.6,0.2-2.7,0.5-3.3c0.3-0.5,0.7-0.8,1.1-0.8c0.5,0,0.8,0.2,1,0.5
				s0.3,0.6,0.3,0.9c0,0.3-0.1,0.6-0.3,1c-0.2,0.3-0.4,0.8-0.6,1.4c-0.2,0.6-0.3,1.4-0.3,2.5c0,0.4,0,0.8,0.1,1.2s0.2,0.8,0.5,1.1
				c0.2,0.3,0.6,0.4,1.1,0.4s1-0.2,1.5-0.6c0.5-0.4,0.9-1.1,1.4-2.1l0.5,0.4c-0.5,1.2-1.1,2-1.7,2.4c-0.6,0.4-1.2,0.6-1.8,0.6
				c-0.8,0-1.5-0.3-2-0.9s-0.9-1.5-1-2.6c-0.6,1.2-1.3,2.3-2,3.4c-0.8,1.1-1.6,2-2.4,2.7C45.9,172.3,45,172.7,44.3,172.7z"/>
			<path class="st3" d="M59.2,172.2c-0.9,0-1.6-0.3-2.1-0.9c-0.5-0.6-0.7-1.3-0.7-2.1c0-0.6,0.1-1.2,0.3-2.1
				c0.2-0.8,0.5-1.7,0.8-2.6c0.3-0.9,0.7-1.8,1.2-2.6c0.4-0.8,0.9-1.5,1.4-2s1-0.8,1.5-0.8c0.2,0,0.4,0.1,0.6,0.2
				c0.2,0.1,0.2,0.3,0.2,0.6s-0.2,0.8-0.6,1.4s-0.8,1.4-1.3,2.2s-0.9,1.7-1.3,2.6s-0.6,1.8-0.6,2.6c0,0.9,0.1,1.4,0.4,1.7
				s0.7,0.4,1.3,0.4c0.8,0,1.7-0.4,2.6-1.2s1.9-2.2,2.9-4.3l0.3,0.4c-0.7,2.1-1.7,3.6-3,4.8C62,171.7,60.6,172.2,59.2,172.2z
				 M63.5,155.7c-0.4,0-0.7-0.1-1-0.3s-0.5-0.5-0.5-0.9c0-0.5,0.3-0.9,0.9-1.3c0.6-0.4,1.2-0.6,1.7-0.6c0.4,0,0.6,0.1,0.9,0.3
				c0.2,0.2,0.3,0.5,0.3,0.9c0,0.5-0.2,0.9-0.7,1.3C64.6,155.5,64.1,155.7,63.5,155.7z"/>
			<path class="st3" d="M76.9,172c-0.8,0-1.5-0.2-1.9-0.6c-0.4-0.4-0.6-1-0.6-1.7c0-0.5,0.1-1,0.3-1.6c0.2-0.6,0.4-1.1,0.5-1.7
				c0.2-0.6,0.3-1.2,0.3-1.7c0-0.7-0.1-1.1-0.4-1.4s-0.6-0.4-1-0.4c-0.7,0-1.5,0.3-2.3,0.9c-0.8,0.6-1.5,1.4-2.2,2.3
				c-0.7,0.9-1.4,1.9-2,2.9s-1.2,1.9-1.7,2.7c-0.4,0-0.8-0.1-1.1-0.2c-0.3-0.1-0.6-0.3-0.8-0.6c0-0.1,0.1-0.5,0.4-1.1
				s0.5-1.4,0.9-2.3s0.6-1.8,0.9-2.8s0.4-1.8,0.4-2.6c0.1-0.2,0.4-0.3,0.7-0.5c0.3-0.2,0.6-0.3,1-0.3c0.6,0,1,0.3,1,0.9
				c0,0.4-0.1,1-0.3,1.9c-0.2,0.9-0.5,1.8-0.8,2.8c0.6-1,1.4-2,2.2-2.9c0.8-1,1.7-1.8,2.6-2.4c0.9-0.6,1.8-1,2.7-1
				c0.9,0,1.6,0.3,2,1s0.6,1.4,0.6,2.2c0,0.7-0.1,1.4-0.4,2.1c-0.2,0.6-0.5,1.2-0.7,1.8c-0.3,0.6-0.4,1.2-0.4,1.8
				c0,0.5,0.1,0.9,0.3,1.1c0.2,0.2,0.5,0.3,0.8,0.3c0.6,0,1.2-0.3,1.8-0.8c0.6-0.6,1.2-1.3,1.7-2.1c0.6-0.9,1.1-1.7,1.5-2.6l0.4,0.5
				c-0.5,1.2-1.1,2.2-1.7,3.1c-0.6,0.9-1.3,1.6-2.1,2.2C78.6,171.7,77.8,172,76.9,172z"/>
			<path class="st3" d="M83.4,181.4c-0.5,0-1-0.2-1.4-0.5s-0.6-0.9-0.6-1.6c0-0.7,0.2-1.4,0.7-2c0.4-0.6,1-1.2,1.7-1.7
				s1.5-1,2.3-1.4s1.6-0.8,2.4-1.2c0.3-0.8,0.7-1.7,1-2.7s0.6-2,0.9-3.2c-0.9,1.3-1.9,2.4-2.9,3.3c-1,0.9-2,1.3-3,1.3
				c-0.9,0-1.5-0.3-2-1c-0.5-0.6-0.7-1.5-0.7-2.5c0-1.2,0.3-2.4,0.9-3.6c0.6-1.1,1.4-2.1,2.4-3s2-1.5,3.1-2s2.1-0.7,3.1-0.7
				c0.7,0,1.2,0.1,1.5,0.3s0.4,0.5,0.4,0.8c0,0.2-0.1,0.4-0.2,0.5s-0.2,0.2-0.3,0.2c-0.1-0.2-0.3-0.3-0.5-0.4
				c-0.2-0.1-0.5-0.1-0.9-0.1c-0.9,0-1.8,0.3-2.7,0.8c-0.9,0.6-1.7,1.3-2.3,2.1c-0.7,0.9-1.2,1.8-1.6,2.7s-0.6,1.8-0.6,2.5
				c0,0.6,0.1,1,0.3,1.3c0.2,0.3,0.5,0.4,0.9,0.4c0.7,0,1.5-0.5,2.5-1.4s1.9-2,2.8-3.4c0.1-0.3,0.1-0.6,0.2-0.9
				c0.1-0.3,0.1-0.6,0.2-1c0.1-0.3,0.2-0.7,0.5-1.2c0.3-0.4,0.7-0.7,1.3-0.7c0.1,0,0.2,0,0.4,0c0.1,0,0.3,0,0.4,0.1
				c0,0.4-0.1,1.1-0.3,2.1s-0.6,2.2-1,3.6c-0.4,1.4-0.9,2.8-1.5,4.2c0.8-0.4,1.6-0.9,2.3-1.5c0.8-0.6,1.4-1.3,2.1-2.1
				c0.6-0.8,1.1-1.6,1.5-2.5l0.5,0.4c-0.4,1.1-0.9,2.1-1.7,3c-0.8,0.9-1.6,1.7-2.5,2.3s-1.7,1.2-2.5,1.5c-0.7,1.6-1.4,3.1-2.1,4.4
				c-0.7,1.3-1.5,2.4-2.3,3.2C85.2,181,84.3,181.4,83.4,181.4z M83.3,180.2c0.5,0,1.1-0.5,2-1.4c0.8-0.9,1.7-2.6,2.7-4.9
				c-1,0.5-1.9,1-2.7,1.5c-0.8,0.5-1.5,1.1-2,1.6c-0.5,0.6-0.8,1.2-0.8,1.9c0,0.4,0.1,0.7,0.3,0.9C82.9,180.1,83.1,180.2,83.3,180.2
				z"/>
			<path class="st3" d="M108.5,172.9c-1,0-1.8-0.3-2.4-0.9c-0.6-0.6-0.8-1.5-0.8-2.7c0-1.1,0.2-2.4,0.6-3.9s0.9-3.1,1.5-4.8
				c-0.2,0-0.5-0.1-0.7-0.1s-0.4-0.1-0.6-0.2v-0.6c0.2,0,0.4,0,0.7,0.1c0.3,0,0.6,0,0.9,0.1c0.5-1.3,1-2.5,1.6-3.8
				c0.6-1.2,1.1-2.3,1.7-3.2s1.1-1.7,1.6-2.3s1-0.8,1.3-0.8c0.2,0,0.4,0.1,0.5,0.2c0.2,0.1,0.2,0.3,0.2,0.6c0,0.4-0.3,1.1-0.8,2
				s-1.1,2-1.9,3.3c-0.7,1.3-1.5,2.7-2.2,4.1c0.2,0,0.4,0,0.7,0s0.5,0,0.7,0c0.8,0,1.6,0,2.5,0s1.8-0.1,2.6-0.2v0.6
				c-1.3,0.1-2.5,0.3-3.5,0.3c-1,0.1-2,0.1-2.8,0.1c-0.1,0-0.2,0-0.3,0c-0.1,0-0.2,0-0.3,0c-0.6,1.3-1,2.6-1.4,3.9
				c-0.4,1.3-0.6,2.7-0.6,3.9c0,1,0.2,1.8,0.5,2.2s0.8,0.7,1.5,0.7c1.2,0,2.5-0.6,3.7-1.7c1.2-1.1,2.3-2.6,3.2-4.5l0.5,0.4
				c-0.6,1.3-1.3,2.6-2.2,3.6c-0.9,1.1-1.8,1.9-2.9,2.6C110.7,172.6,109.6,172.9,108.5,172.9z"/>
			<path class="st3" d="M121.9,172.2c-0.8,0-1.5-0.2-1.9-0.6c-0.5-0.4-0.7-1-0.7-1.7s0.2-1.5,0.5-2.3s0.7-1.6,1-2.4
				c0.3-0.8,0.5-1.5,0.5-2.1c0-0.8-0.2-1.3-0.7-1.7c-0.4-0.4-0.9-0.7-1.4-1c-0.6,1.4-1.1,2.8-1.7,4c-0.6,1.3-1.1,2.2-1.5,2.9
				l-0.3-0.6c0.3-0.6,0.8-1.5,1.3-2.7s1.1-2.6,1.6-4.1c-0.2-0.2-0.4-0.5-0.4-0.9c0-0.7,0.2-1.3,0.6-1.8s0.7-0.7,0.9-0.7
				c0.3,0,0.4,0.1,0.5,0.3c0,0.2,0.1,0.4,0.1,0.5s-0.1,0.4-0.2,0.7s-0.2,0.6-0.2,0.6c0,0.3,0.2,0.6,0.6,0.9c0.4,0.3,0.8,0.6,1.3,0.9
				c0.5,0.3,0.9,0.8,1.3,1.3s0.6,1.1,0.6,1.9c0,0.7-0.1,1.5-0.4,2.2s-0.6,1.5-0.9,2.1c-0.3,0.7-0.5,1.3-0.5,1.8
				c0,0.4,0.1,0.7,0.3,0.9c0.2,0.1,0.5,0.2,0.8,0.2c0.6,0,1.2-0.2,1.8-0.5c0.6-0.4,1.2-0.8,1.8-1.4c0.6-0.6,1.1-1.1,1.5-1.7
				c0.5-0.6,0.8-1.2,1-1.7l0.5,0.4c-0.5,1-1.1,2-1.9,3c-0.8,1-1.7,1.8-2.6,2.4C123.9,171.9,122.9,172.2,121.9,172.2z"/>
			<path class="st3" d="M129.9,173c-0.7,0-1.4-0.2-1.9-0.7c-0.5-0.5-0.8-1.2-0.8-2.2c0-0.9,0.2-1.8,0.6-2.8c0.4-1,0.9-2,1.6-3
				c0.7-1,1.4-1.9,2.3-2.7c0.9-0.8,1.8-1.4,2.7-1.9s1.9-0.7,2.8-0.7c0.9,0,1.7,0.2,2.3,0.7s0.9,1.1,0.9,2c0,0.6-0.2,1-0.5,1.2
				s-0.8,0.3-1.3,0.3c0-0.2,0.1-0.4,0.1-0.6c0-0.2,0.1-0.4,0.1-0.6c0-0.6-0.1-1-0.4-1.4c-0.3-0.4-0.7-0.6-1.4-0.6s-1.4,0.2-2.1,0.7
				c-0.7,0.5-1.4,1.1-2,1.9s-1.2,1.6-1.7,2.5s-0.9,1.8-1.2,2.7s-0.4,1.7-0.4,2.4c0,0.9,0.3,1.4,1,1.4c0.6,0,1.2-0.3,1.8-0.8
				s1.3-1.2,2-2s1.3-1.6,2-2.5c0.6-0.9,1.2-1.7,1.7-2.4c0.1-0.1,0.2-0.2,0.2-0.2c0.1,0,0.3,0.1,0.6,0.1c0.2,0.1,0.4,0.2,0.6,0.3
				c0.2,0.1,0.3,0.3,0.3,0.5s-0.1,0.5-0.3,0.9s-0.5,0.8-0.7,1.3c-0.3,0.5-0.5,1-0.7,1.5s-0.3,1-0.3,1.4s0.1,0.7,0.3,1.1
				c0.2,0.3,0.5,0.5,0.9,0.5c0.6,0,1.5-0.5,2.6-1.4s2.1-2.4,3.2-4.3l0.4,0.4c-0.5,1.3-1.2,2.4-1.9,3.4c-0.8,1-1.6,1.8-2.5,2.3
				s-1.8,0.8-2.6,0.8c-0.9,0-1.5-0.3-2-0.8c-0.4-0.5-0.6-1.1-0.6-1.7c0-0.1,0-0.3,0-0.5s0-0.4,0.1-0.6c-1,1.4-2,2.4-2.8,3.1
				C131.7,172.6,130.8,173,129.9,173z"/>
			<path class="st3" d="M146.2,172.7c-0.7,0-1.3-0.4-1.5-1.1c-0.3-0.7-0.4-1.7-0.4-2.9c0,0,0-0.4,0-1.1c0-0.7,0.1-1.9,0.2-3.6
				c0-0.6,0.1-1.1,0.2-1.3c0.1-0.2,0.4-0.4,0.9-0.4c0.4,0,0.7,0.1,0.8,0.2c0.1,0.2,0.2,0.5,0.2,0.9c0,0.8-0.1,1.7-0.2,2.8
				c-0.1,1.1-0.2,2.1-0.2,3c0,0.7,0.1,1.2,0.2,1.5c0.1,0.3,0.3,0.5,0.6,0.5c0.4,0,0.9-0.2,1.4-0.7s1.1-1.1,1.6-1.9
				c0.6-0.8,1.1-1.7,1.6-2.6c0.5-0.9,0.9-1.8,1.3-2.6c0-1.6,0.2-2.7,0.5-3.3s0.7-0.8,1.1-0.8s0.8,0.2,1,0.5s0.3,0.6,0.3,0.9
				c0,0.3-0.1,0.6-0.3,1c-0.2,0.3-0.4,0.8-0.6,1.4c-0.2,0.6-0.3,1.4-0.3,2.5c0,0.4,0,0.8,0.1,1.2s0.2,0.8,0.5,1.1
				c0.2,0.3,0.6,0.4,1.1,0.4s1-0.2,1.5-0.6s0.9-1.1,1.4-2.1l0.5,0.4c-0.5,1.2-1.1,2-1.7,2.4c-0.6,0.4-1.2,0.6-1.8,0.6
				c-0.8,0-1.5-0.3-2-0.9s-0.9-1.5-1-2.6c-0.6,1.2-1.3,2.3-2,3.4c-0.8,1.1-1.6,2-2.4,2.7C147.8,172.3,147,172.7,146.2,172.7z"/>
			<path class="st3" d="M162.4,172.9c-1.5,0-2.6-0.4-3.3-1.2s-1.1-1.8-1.1-3c0-1.1,0.3-2.2,0.8-3.4s1.3-2.3,2.2-3.4
				c0.9-1.1,1.9-1.9,3-2.6c1.1-0.7,2.1-1,3.2-1c0.6,0,1.1,0.1,1.5,0.4c0.5,0.3,0.7,0.9,0.7,1.8c0,0.9-0.3,1.8-0.8,2.6
				s-1.2,1.5-2.1,2.1c-0.9,0.6-1.8,1.1-2.9,1.5s-2.1,0.6-3.1,0.7c0,0.2-0.1,0.5-0.1,0.7s0,0.4,0,0.6c0,0.4,0,0.7,0.1,1.1
				c0.1,0.4,0.2,0.7,0.5,1c0.2,0.3,0.5,0.5,0.9,0.7s0.8,0.3,1.4,0.3c1,0,2.1-0.3,3.1-0.9c1-0.6,1.9-1.4,2.8-2.3c0.9-1,1.6-2,2.2-3.2
				l0.4,0.3c-0.6,1.4-1.5,2.7-2.5,3.7c-1,1.1-2.1,1.9-3.2,2.5C164.8,172.6,163.6,172.9,162.4,172.9z M160.7,166.8
				c0.6-0.2,1.4-0.5,2.2-1c0.8-0.4,1.6-0.9,2.4-1.5c0.8-0.6,1.4-1.2,1.9-1.9s0.7-1.4,0.7-2.2c0-0.3,0-0.5-0.1-0.6s-0.3-0.2-0.6-0.2
				c-0.6,0-1.2,0.2-1.8,0.7c-0.6,0.4-1.3,1-1.9,1.7c-0.6,0.7-1.1,1.5-1.6,2.4C161.3,165.1,160.9,165.9,160.7,166.8z"/>
			<path class="st3" d="M173.5,172.4c-1,0-1.8-0.4-2.2-1.1c-0.4-0.7-0.7-1.6-0.7-2.6c0-1.2,0.2-2.5,0.6-4.1c0.4-1.6,1-3.3,1.7-5
				s1.5-3.5,2.3-5.1c0.8-1.7,1.7-3.2,2.5-4.6s1.6-2.5,2.3-3.3s1.3-1.2,1.7-1.2c0.3,0,0.5,0.1,0.6,0.4c0.2,0.3,0.3,0.7,0.4,1.1
				c0.1,0.4,0.1,0.8,0.1,1.1c0,0.6-0.2,1.5-0.5,2.5s-0.8,2.2-1.4,3.5c-0.6,1.3-1.3,2.6-2.1,3.9s-1.7,2.6-2.6,3.8
				c-0.9,1.2-2,2.2-3,3.1c-0.1,0.6-0.3,1.3-0.3,1.9c-0.1,0.6-0.1,1.2-0.1,1.7c0,0.9,0.1,1.6,0.4,2.1c0.3,0.5,0.7,0.7,1.2,0.7
				c0.6,0,1.3-0.3,1.9-0.9s1.2-1.3,1.8-2.2s1-1.8,1.5-2.7l0.5,0.3c-1,2-2,3.7-3.1,4.8S174.8,172.4,173.5,172.4z M173.8,163.6
				c0.8-0.8,1.7-1.8,2.4-2.9c0.8-1.1,1.5-2.2,2.2-3.4s1.3-2.3,1.8-3.4s0.9-2.1,1.2-3s0.4-1.6,0.4-2c0-0.2,0-0.4-0.1-0.5
				s-0.1-0.1-0.2-0.1c-0.2,0-0.5,0.3-1,0.9c-0.5,0.6-1,1.4-1.6,2.5c-0.6,1-1.3,2.2-1.9,3.5c-0.6,1.3-1.3,2.7-1.9,4.1
				C174.7,160.8,174.2,162.2,173.8,163.6z"/>
			<path class="st3" d="M191.4,172.4c-1,0-1.8-0.4-2.2-1.1c-0.4-0.7-0.7-1.6-0.7-2.6c0-1.2,0.2-2.5,0.6-4.1c0.4-1.6,1-3.3,1.7-5
				s1.5-3.5,2.3-5.1c0.8-1.7,1.7-3.2,2.5-4.6s1.6-2.5,2.3-3.3s1.3-1.2,1.7-1.2c0.3,0,0.5,0.1,0.6,0.4c0.2,0.3,0.3,0.7,0.4,1.1
				c0.1,0.4,0.1,0.8,0.1,1.1c0,0.6-0.2,1.5-0.5,2.5s-0.8,2.2-1.4,3.5c-0.6,1.3-1.3,2.6-2.1,3.9s-1.7,2.6-2.6,3.8
				c-0.9,1.2-2,2.2-3,3.1c-0.1,0.6-0.3,1.3-0.3,1.9c-0.1,0.6-0.1,1.2-0.1,1.7c0,0.9,0.1,1.6,0.4,2.1c0.3,0.5,0.7,0.7,1.2,0.7
				c0.6,0,1.3-0.3,1.9-0.9s1.2-1.3,1.8-2.2s1-1.8,1.5-2.7l0.5,0.3c-1,2-2,3.7-3.1,4.8S192.7,172.4,191.4,172.4z M191.6,163.6
				c0.8-0.8,1.7-1.8,2.4-2.9c0.8-1.1,1.5-2.2,2.2-3.4s1.3-2.3,1.8-3.4s0.9-2.1,1.2-3s0.4-1.6,0.4-2c0-0.2,0-0.4-0.1-0.5
				s-0.1-0.1-0.2-0.1c-0.2,0-0.5,0.3-1,0.9c-0.5,0.6-1,1.4-1.6,2.5c-0.6,1-1.3,2.2-1.9,3.5c-0.6,1.3-1.3,2.7-1.9,4.1
				C192.5,160.8,192,162.2,191.6,163.6z"/>
			<path class="st3" d="M199.5,172.2c-0.9,0-1.6-0.3-2.1-0.9c-0.5-0.6-0.7-1.3-0.7-2.1c0-0.6,0.1-1.2,0.3-2.1
				c0.2-0.8,0.5-1.7,0.8-2.6s0.7-1.8,1.2-2.6c0.4-0.8,0.9-1.5,1.4-2s1-0.8,1.5-0.8c0.2,0,0.4,0.1,0.6,0.2s0.2,0.3,0.2,0.6
				s-0.2,0.8-0.6,1.4c-0.4,0.6-0.8,1.4-1.3,2.2s-0.9,1.7-1.3,2.6c-0.4,0.9-0.6,1.8-0.6,2.6c0,0.9,0.1,1.4,0.4,1.7s0.7,0.4,1.3,0.4
				c0.8,0,1.7-0.4,2.6-1.2s1.9-2.2,2.9-4.3l0.3,0.4c-0.7,2.1-1.7,3.6-3,4.8C202.3,171.7,200.9,172.2,199.5,172.2z M203.8,155.7
				c-0.4,0-0.7-0.1-1-0.3s-0.5-0.5-0.5-0.9c0-0.5,0.3-0.9,0.9-1.3c0.6-0.4,1.2-0.6,1.7-0.6c0.4,0,0.6,0.1,0.9,0.3s0.3,0.5,0.3,0.9
				c0,0.5-0.2,0.9-0.7,1.3S204.4,155.7,203.8,155.7z"/>
			<path class="st3" d="M205.1,181.4c-0.2,0-0.5-0.1-0.8-0.2c-0.3-0.2-0.6-0.5-0.8-0.9c-0.2-0.5-0.3-1.1-0.3-2
				c0-1.1,0.2-2.4,0.5-4.1c0.4-1.7,0.9-3.6,1.5-5.6s1.3-4.1,2.2-6.3c0.8-2.1,1.7-4.2,2.6-6.2s1.9-3.8,2.9-5.4c1-1.6,2-2.9,2.9-3.8
				s1.9-1.4,2.7-1.4c0.5,0,0.8,0.2,1,0.5s0.2,0.7,0.2,1.1c0,1-0.3,2.2-0.8,3.4c-0.6,1.2-1.3,2.5-2.2,3.7s-2,2.4-3.1,3.5
				s-2.3,2.1-3.4,2.9c-0.1,0.3-0.2,0.6-0.3,0.9c-0.1,0.3-0.2,0.6-0.3,0.9c0.3,0,0.5,0.2,0.6,0.4c0.2,0.2,0.2,0.5,0.3,0.7
				c0.2,1.1,0.3,2,0.5,2.9s0.5,1.5,0.9,2s1,0.7,1.7,0.7c0.8,0,1.5-0.3,2.1-0.9c0.6-0.6,1.2-1.5,1.9-2.6l0.5,0.4
				c-0.6,1.4-1.4,2.5-2.3,3.1s-1.7,1-2.4,1c-0.4,0-0.9-0.1-1.4-0.3s-0.9-0.5-1.3-0.9c0,1.5-0.2,3-0.5,4.5s-0.8,2.8-1.3,4.1
				c-0.5,1.2-1.1,2.2-1.8,3C206.5,181,205.8,181.4,205.1,181.4z M206,179.6c0.3,0,0.6-0.2,0.9-0.7c0.3-0.5,0.7-1.1,1-1.9
				c0.3-0.8,0.6-1.6,0.9-2.6c0.3-0.9,0.5-1.9,0.6-2.8s0.3-1.8,0.3-2.5s-0.1-1.4-0.3-2s-0.5-1.3-0.9-2.2c-0.6,1.8-1.1,3.5-1.6,5.2
				s-0.9,3.2-1.1,4.5s-0.4,2.4-0.4,3.2C205.3,179.1,205.6,179.6,206,179.6z M210.7,158.9c1.6-1.4,2.9-2.9,4-4.3
				c1.1-1.5,2-2.7,2.6-3.9c0.6-1.1,0.9-1.9,0.9-2.4c0-0.3-0.2-0.5-0.5-0.5c-0.6,0-1.3,0.5-2.1,1.5s-1.6,2.4-2.5,4
				C212.4,155,211.5,156.9,210.7,158.9z"/>
			<path class="st3" d="M220.7,172.9c-1.5,0-2.6-0.4-3.3-1.2s-1.1-1.8-1.1-3c0-1.1,0.3-2.2,0.8-3.4s1.3-2.3,2.2-3.4
				c0.9-1.1,1.9-1.9,3-2.6c1.1-0.7,2.1-1,3.2-1c0.6,0,1.1,0.1,1.5,0.4c0.5,0.3,0.7,0.9,0.7,1.8c0,0.9-0.3,1.8-0.8,2.6
				s-1.2,1.5-2.1,2.1c-0.9,0.6-1.8,1.1-2.9,1.5s-2.1,0.6-3.1,0.7c0,0.2-0.1,0.5-0.1,0.7s0,0.4,0,0.6c0,0.4,0,0.7,0.1,1.1
				c0.1,0.4,0.2,0.7,0.5,1c0.2,0.3,0.5,0.5,0.9,0.7s0.8,0.3,1.4,0.3c1,0,2.1-0.3,3.1-0.9c1-0.6,1.9-1.4,2.8-2.3c0.9-1,1.6-2,2.2-3.2
				l0.4,0.3c-0.6,1.4-1.5,2.7-2.5,3.7c-1,1.1-2.1,1.9-3.2,2.5C223.1,172.6,221.9,172.9,220.7,172.9z M218.9,166.8
				c0.6-0.2,1.4-0.5,2.2-1c0.8-0.4,1.6-0.9,2.4-1.5c0.8-0.6,1.4-1.2,1.9-1.9s0.7-1.4,0.7-2.2c0-0.3,0-0.5-0.1-0.6s-0.3-0.2-0.6-0.2
				c-0.6,0-1.2,0.2-1.8,0.7c-0.6,0.4-1.3,1-1.9,1.7c-0.6,0.7-1.1,1.5-1.6,2.4C219.5,165.1,219.2,165.9,218.9,166.8z"/>
		</g>
	</g>
</g>
<g>
	<path d="M72.6,70.9c0.5-0.1,1,0,1.6,0.2c0-0.7-0.1-1.5,0.7-1.7c0.8-0.1,1.4,0.2,1.9,0.8c0.8,0.9,2.1,0.8,2.9,1.5
		c0.3-0.5,0.2-0.6,0-0.7c-0.5-0.3-1.6-0.2-1.4-1.3c0.2-1.1,1.2-1,1.9-1.1c2.8-0.3,5.6-0.6,8.4-0.8c0.7-0.1,1.5-0.1,2.2-0.1
		c0.6,0,1.1,0.3,1.1,1.2c2-1.3,4.3-0.9,6.4-1.6c2.1,0,4.2,0,6.3,0c1.3,0.1,2.4,1.2,3.8,0.8c0.6-0.2,1.4,0.2,1.9,0.9
		c-2.8,0.9-4,3.3-5.6,5.3c-0.3,0.3-0.5,0.7-0.9,0.7c-2.1,0.2-3.7,1.4-5.6,2.1c-1.1,0.4-2.1,1-3.3,1c-0.9-0.1-1.1,0.6-1.4,1.2
		c-0.5,1-1.2,1.6-2.3,1.6c-1,0-1.7-0.4-1.8-1.4c-0.1-1.3-1-2.9,0.8-3.9c0.2-0.1,0.2-0.5,0.1-0.7c-0.4-0.6-0.3-1.1,0-1.8
		c0.3-0.7,0-1.5-1.1-1.4c-0.9,0.1-1.8,0.4-2.7,0.2C86,72.2,85,72,85.7,70.7c-1.6,0.1-2.1,1.7-3.7,2.2c2.4,0.6,3,3.2,5.5,3.3
		c-0.8,1.5-1.9,1.5-3.2,1.4c0.2,1.2-1.2,1.5-1.5,2.6c-0.1,0.6-1.3,0.2-1.9-0.4c-0.4-0.5-0.9-1-1.7-0.6c0.3,0.9,1.3,1.3,1.6,2.2
		c0.4,0.1,0.7-0.1,1-0.3c0.8-0.5,1.5-0.1,1.6,0.7c0.1,1,0.5,1.7,1.1,2.4c0.2,0.2,0.3,0.6,0.3,0.8c-0.2,1.2,0,2.2,0.5,3.3
		c0.4,0.9-0.2,1.5-1,1.2c-1-0.4-2.1-0.1-3-0.4c0.4-0.7,0.7-1.4,1.1-2.1c-0.5,0-1,0-1.6,0c0.2,0.9-0.4,1.2-1,1.5
		c0.5,0.6,1.2,0.1,1.6,0.5c-0.4,0.7-3.2,2.3-3.9,2.3c-0.5,0-0.4-0.5-0.7-0.8c-1.3,1.6-2.9,2.7-4.5,3.9c-1.7,1.2-2.9,2.9-4.6,4
		c-1.4,0.8-1.9,1.8-1.5,3.4c0.2,0.6,0.1,1.3,0.1,1.9c0,0.5-0.2,0.9-0.7,1c-0.7,0-0.7-0.5-0.7-0.9c0-0.2,0-0.4,0-0.6
		c-0.1-0.7,0.5-1.6-0.5-1.9c-1-0.3-2-1.3-3.1,0c-0.6,0.6-1.5,0.4-2.3,0.4c-2.3,0.1-3.6,1.5-3.4,3.8c0,0.4,0.1,0.8,0.2,1.2
		c0.1,0.6-0.2,1.5,0.7,1.6c0.8,0.1,1.7,0.3,2.4-0.5c0,0,0.1-0.1,0.1-0.1c0.5-0.5,0.9-1.6,1.7-1c0.8,0.6,0.3,1.5-0.2,2.3
		c-0.2,0.3-0.4,0.6-0.3,1c0.2,0.3,0.4,0.2,0.7,0.1c1.7-0.4,2.3,0.1,2.1,1.8c-0.1,1-0.4,2,0.7,2.7c0.9,0.5,2.6,0,3.6-0.9
		c1-0.9,2.1-2,3.7-0.9c0.6,0.4,1.2,0.1,1.7-0.1c1.4-0.6,2.4-0.2,3,1.1c0.6,1,1.3,1.7,2.6,1.7c1.7,0.1,2.8,1.2,3.1,2.8
		c0.2,1.3,1,1.8,2,2.5c1.6,1,3.2,1.6,5,2.1c2.3,0.6,3.3,3.4,1.9,5.4c-1.4,2-2.1,4-2,6.4c0.1,1.5-0.8,2.6-2.4,2.8
		c-1.1,0.1-1.4,0.6-1.7,1.7c-0.4,1.3-1,2.6-1.3,4c-0.2,0.8-0.7,1.4-1.6,1.3c1,2,0.8,2.5-1.4,2.6c-0.3,0-0.7-0.1-0.8,0.2
		c-0.3,1-1.4,0.9-2.1,1.5c0.6,1.1,0.9,2.3-0.5,3.3c1.3,0.5,1.7,1.2,1.6,2.4c-0.1,1.2,0.7,2,1.7,2.6c0.4,0.3,0.9,0.4,1.2,0.8
		c-0.6,1.3-1.7,1.7-2.7,0.7c-1.2-1.1-2.8-1.6-4-2.6c-0.3-0.2-0.6-0.5-0.7-0.8c-0.3-1.7-1.2-3.1-1.4-4.9c-0.5-5.2-0.5-10.4-1.4-15.6
		c-0.2-1.1-0.7-1.8-1.8-2.2c-1.2-0.5-2.2-1.2-2.8-2.4c-0.6-1.3-1.4-2.4-2.3-3.5c-1.4-1.8-1.2-4.2,0.5-5.8c0.6-0.6,1-1.2,0.7-2
		c-0.2-0.9,0-1.7,0.3-2.5c-2.1,0.1-3.5-1.2-5-2.2c-0.8-0.5-1.6-1.1-2.6-1.2c-0.3,0-0.7-0.2-0.8-0.4c-0.8-1.9-2.7-1.8-4.3-2.3
		c-1.5-0.4-2.4-1-2.3-2.8c0-2.1-1.8-3.3-2.5-5c-0.2,0.9,0.5,1.6,0.8,2.4c0.2,0.7,0.5,1.5-0.3,1.7c-0.8,0.2-0.9-0.7-1.2-1.2
		c-1.7-3.1-1.2-6.8-2.7-9.9c-0.4-0.9,0-1.8,0.5-2.5c0.6-0.8,1.3-1.6,1.6-2.5c0.5-1.3,0-2.8-1.1-3.6c-0.4-0.3-0.3-0.7-0.2-1.1
		c0.2-0.7,0.7-0.9,1.5-0.5c-1.9-1.4-0.4-2.8,0-3.9c-0.2-0.4-0.4-0.6-0.7-0.6c-2.3,0.4-4.6,0.5-6.6,1.6c-0.9,0.5-1.6,0.8-2.8,0.6
		c-1.1-0.2-2.1,0.8-3.1,1.5c-0.6,0.4-1.1,0.9-1.8,0.7c-0.1-0.7,0.3-0.9,0.6-1.1c1.2-0.7,2.6-1.2,2.5-3.1c0-0.7,0.9-1.1,1.7-1.1
		c0.5,0,1,0.2,1.5-0.4c-0.8-0.2-1.8-0.4-1.4-1.4c0.4-0.9,1.2-0.9,2.1-0.7c1.4,0.2,2.7-0.2,3.9-1c1.5-1.1,3-2.3,5.1-1.4
		c0.2,0.1,0.5-0.2,0.8-0.3c1.1-0.3,2.4-0.5,3.4,0.1c1.1,0.6,2.1,1,3.2,0.2c0.1-0.1,0.4-0.1,0.6,0c1.8,1.1,3.6-0.3,5.5,0.4
		c0.1-1.9,1.2-2.3,2.7-2.2c1.6,0.1,3.2,0.2,4.8,0.1c-0.4-0.1-0.9-0.3-1.3-0.5c-0.5-0.2-1-0.6-0.7-1.3c0.3-0.6,0.7-0.9,1.4-0.6
		c0.7,0.3,1.3,0.7,2,1c0.1-0.6-0.7-1.1,0-1.5c0.7-0.4,1.5-0.5,2.2-0.2C73.2,70.1,72.7,70.6,72.6,70.9c-0.2,0-0.6,0.1-0.5,0.4
		c0.3,1.3-0.6,1.3-1.3,1.4c-0.4,1.2-0.7,2.2-1.1,3.3c1.1,0.2,0.6-0.8,1.1-1c1,0.1,2.5-0.8,3.9-2.2C73.7,72.5,72.6,72.3,72.6,70.9z
		 M76.9,78.8c-0.9-0.3-2,0.5-2.8-0.2c-0.9-0.7-1.6-0.4-2.3,0c-1.5,0.7-2.4,2.1-3.8,3.1c1.1,1.4,2.5,1.9,3.9,2.3
		c0,0.9-0.9,1.4-0.5,2.5c1.3-1.1,1.6-3.1,3.3-3.6c0,0,0-0.1,0-0.1C74.6,81.1,76,80.1,76.9,78.8c0.9,0.3,0.7-1,1.3-0.9
		c1.7,0.1,1.8-0.9,1.4-2.2c-1.4,0-2.2,1.4-3.9,1.3C76.6,77.5,77,78,76.9,78.8z M35.4,81.4c2.4,0.9,2.4,0.8,4.5-0.2
		c2-0.9,4.1-1.2,6.3-1.2c1.2,0,1.7,0.8,1,1.8c-0.8,1.2-1,2.2,0.6,2.8c-0.2,0.6-0.3,1.2-0.4,1.8c-0.1,1.1,0.2,2.3-0.1,3.4
		c-0.3,1.2-1,2.2-1.7,3.2c-0.5,0.6-1.2,1.4-0.6,2.2c1,1.5,0.3,3.8,2.5,4.6c0.2,0.1,0.3,0.4,0.3,0.7c0.5,1.8,1.3,3.3,2.4,4.8
		c0.4,0.6,0.7,1.3,0.7,2c-0.2,1.7,0.8,2.2,2.2,2.5c1.2,0.3,2.8,0.3,3.5,1.3c1.4,1.9,3.9,1.6,5.2,3.3c0-0.9-0.1-1.5,0.1-2.2
		c0.3-1.1,0.1-1.7-1.2-1.2c-0.5,0.2-1,0-1.3-0.4c-0.3-0.4-0.1-0.9,0-1.3c0.2-0.5,0.8-0.9,0.5-1.7c-0.2,0.1-0.4,0.2-0.5,0.4
		c-0.9,1.5-2.3,1.4-3.6,1.2c-1.2-0.2-0.9-1.5-1.1-2.4c-0.1-0.4-0.2-0.9-0.2-1.3c-0.1-2.3,1.5-4,3.8-4.1c0.7,0,1.5,0.2,2-0.3
		c1-1.1,2.1-0.8,3.3-0.3c0.4,0.2,0.8,0.4,1.3,0.1c0.2-1,0.8-1.7,1.6-2.4c1.9-1.5,3.6-3.1,5.4-4.6c1.4-1.2,2.8-2.4,4.3-3.5
		c0.7-0.5,1.4-0.8,1.7,0.4c0.4-0.3,0.9-0.4,1.1-0.7c-0.1-1.1-0.5-1.8-1.4-2.1c0.3-0.5,0.6-0.7,1-0.8c1.2-0.3,2.4-0.6,3.7-0.6
		c1.3,0,2.1-1,1.5-1.8c-0.8-0.9-1.1-1.9-1.3-3.2C81.8,82,80.9,82.3,80,82c-0.3-0.2-0.1-0.5-0.2-0.7c-0.4-0.9-0.9-1.7-2-1.9
		c-0.5-0.1-1,0.1-1.3,0.6c-1.1,1.5-0.9,4-3.2,4.8c-0.1,0-0.1,0.3-0.1,0.4c-0.3,1.5-1.4,1.8-2.6,1.9c-0.5-1,0.2-1.7,0.3-2.6
		c-1.3,0.2-1.9-1.1-2.9-1.5c-0.8-0.4-0.9-1.5-0.1-2.2c1.9-1.6,3.5-3.6,6.4-3.5c0.3,0.8,0.3,0.8,1.2,0.4c-1.7-0.5-1-2.4-2.1-3.5
		c-0.7,0.8-0.6,2.5-2.5,2.2c-1.1-0.2-2.3,0.3-3.4-0.2c0.1-1.3,2.4-0.4,1.8-2.3c-2.3,0-4.6-1.2-6.9,0.1c1.6-0.9,2.5,1.2,4,1
		c0.4-0.1,0.7,1,0.1,1.3c-1.1,0.5-2.3,1.1-3.4,0.2c-1.5-1.4-3.2-1-4.9-0.8c-1.5,0.1-3.1-0.4-4.6,0.3c-0.3,0.1-0.8-0.4-1.2-0.6
		c-1.2-0.6-2.4-0.7-3.6-0.2c-0.3,0.1-0.6,0.5-1,0.3c-1.7-0.9-3,0.1-4.3,1c-1.5,1.1-3.1,1.7-5,1.3c-0.5-0.1-0.9,0-1.1,0.6
		C38,78.6,39,77.9,39,79c0,0.9-0.8,1.4-1.7,1.4c-0.2,0-0.5,0-0.8,0C36,80.4,35.5,80.6,35.4,81.4z M79.3,144.1c0.4-0.5,1-0.4,1.5-0.4
		c0.5,0,0.9-0.2,1-0.7c0.3-1.5,1-2.9,1.3-4.4c0.2-1.1,0.7-1.5,1.7-1.8c2-0.5,2.6-1,2.4-3.1c-0.1-2.1,0.5-3.8,1.7-5.4
		c1.8-2.5,0.5-5-2.5-5.2c-1.1-0.1-2-0.3-2.7-1.1c-0.3-0.4-0.8-0.7-1.2-0.8c-1.4-0.4-2.1-1.2-2.2-2.7c-0.1-1.3-1-2.4-2.4-2.5
		c-1.6-0.1-2.5-0.8-3.2-2.1c-0.4-0.7-0.9-1.3-1.8-0.9c-1.1,0.5-2.2,0.7-3.2-0.1c-0.3-0.2-0.5,0-0.8,0.1c-2,1-3.4,3.2-3.2,5.4
		c0.1,1-0.2,1.7-0.9,2.4c-1.6,1.5-1.7,3.6-0.4,5.2c0.8,1,1.5,2,2,3.2c0.5,1.1,1.3,2,2.6,2.4c1.3,0.5,1.9,1.4,2.2,2.8
		c0.9,5.3,0.7,10.7,1.5,16c0.3,2.1,0.6,4.4,2.8,5.6c1.1,0.6,2.1,1.1,3,1.9c0.3,0.3,0.9,0.6,1.3-0.1c-0.9-0.5-1.8-1.1-2.3-2
		c-0.7-1.2,0.1-3.1-1.8-3.8c0.7-1.3,0.6-2.6,0.4-4c1.5-0.2,1.9-2.5,3.8-1.9c0.3,0.1,0.7,0.1,0.9-0.4c0.1-0.4-0.2-0.6-0.5-0.8
		C79.8,144.9,79.3,144.8,79.3,144.1z M108.7,69.4c-6.3-2.1-12.4-1-18.6,1c0,0.2-0.2,0.5-0.3,0.9c1.4,0.6,2.3,4.3,1.2,5.2
		c-1.2,0.9-0.7,1.9-0.6,2.9c0,0.6,0,1.2,0.7,1.3c0.7,0.2,1.5,0,1.7-0.6c0.7-1.8,2-2.3,3.7-2.4c0.8-0.1,1.5-0.6,2.2-0.9
		c1.2-0.5,2.4-1.5,3.7-1.6c2.4-0.2,2.7-2.6,4.3-3.7C107.4,71,107.9,69.8,108.7,69.4z M77.4,74.6c-0.4-0.6,0.4-0.8,0-1.2
		c-1.5,0.9,0.2,1.5,0.1,2.5c2-1.9,2.9-0.3,4,0.7c0.1,1-1.1,0.7-1.3,1.6c0.6,0.4,1,1.2,1.9,1.5c0-0.6-0.7-0.7-0.5-1.2
		c0.6-0.6,1.4,0.3,1.9-0.3c0.1-0.5-0.6-0.9-0.1-1.4c0.8-0.5,1.9,0.9,2.7-0.3c-0.6-0.1-1.1-0.1-1.6-0.1c-0.2-1.9-1.7-2.4-3-2.9
		C79.8,72.8,78.7,74.1,77.4,74.6z M90.7,68.8c-1.9-0.2-3.7,0.4-5.6,0.2c-1.8-0.2-3.5,1-5.6,1.2c1,0.5,1.7,1,2.3,1.5
		c0.5,0.4,0.9,0.2,1.3-0.2c0.8-1,1.9-1.4,3.1-1.7C87.7,69.4,89.2,69.1,90.7,68.8z M76.6,75.5c-0.9-0.5-0.5-1.3-0.4-2.1
		c-1.8,0.4-1.7,1.4-0.9,2.6C75.7,76.1,76.1,76,76.6,75.5z M65.8,75.6c-0.6-0.2-1.3-0.1-1.8-0.7c-0.3-0.4-0.8-0.4-1.1,0.1
		c-0.3,0.6,0.2,0.8,0.6,1C64.3,76.3,65.1,76.2,65.8,75.6z"/>
	<path d="M212.7,147c-0.7,0.7-1.5,1.1-2.4,1.6c-2,1-4.1,1.8-5.6,3.7c-0.5,0.7-1.4,1-2.3,0.7c-0.2-0.6,0.2-0.9,0.5-1.1
		c1.8-1.3,3.6-2.6,5.5-3.9c0.7-0.4,1-1,1-1.7c0-0.6,0.1-1.2,0.2-1.8c0.1-0.3,0.3-0.6,0.7-0.7c0.4-0.1,0.6,0.3,0.8,0.5
		c0.5,0.6,0.3,1.7,1.4,1.8C212.7,146.4,212.7,146.7,212.7,147z M211.4,147.2c-0.2-1-0.1-2-1.1-2.7c-0.3,1.2,0,2.4-0.8,3.5
		C210.3,147.9,210.8,147.5,211.4,147.2z"/>
	<path d="M212.7,132.8c-0.5,0.3-0.8,0.4-1.2-0.2c-0.3-0.6-1.2-1-0.9-1.9c0.2-0.6,0.7-0.4,1.1-0.2c0.4,0.3,0.7,0.7,1,1.1
		C212.7,132,212.7,132.4,212.7,132.8z"/>
	<path d="M109,96.4c-0.7-0.1-1.1,0.2-1.7-0.2c-0.3-1.4,0.3-2.9,0.5-4.4c0.1-0.6,0.6-0.6,1.1-0.6c0.8,0.1,1.7,0.2,2.6,0.3
		c0.2-0.6,0.4-1.2-0.1-1.5c-1.8-0.8-1.2-1.5,0-2.2c-0.5-0.5-1.1-0.1-1.5-0.3c-0.4-0.3,0.2-0.8-0.2-1.1c-1.3,0.6-1.3,0.6-2.2,0.4
		c-0.2-1.2-0.1-2.1,1.1-2.9c0.7-0.4,1.6-0.7,1.8-1.9c0.1-0.7,1-1,1.5,0c0,0,0.1,0.1,0.1,0.1c0.4,1.6,1.2,2.9,2.4,4.1
		c1.3-0.9,2.6-2,2.1-4.1c-0.6-0.1-1.5-0.4-1.4-1.5c0.1-1.1,0.8-1.6,1.8-1.7c1.6-0.2,2-1.6,2.4-2.7c0.2-0.5,0.4-0.8,0.8-0.9
		c2.2-0.8,4.4-1.5,6.8-0.9c0.9,0.2,1.9,0.4,2.8,0.4c1.5,0.1,2,0.3,2.9,1.5c0.8-1.6,2.3-1.1,3.6-1.1c-1.3-1.4-0.7-2.9,1.6-3.8
		c1.1-0.5,2.4-0.7,3.7-0.4c-0.1,1-0.9,1.1-1.6,1.4c-0.6,0.2-1.2,0.3-1.7,0.6c-0.8,0.4-1,1.9-0.3,2.4c0.1,0.1,0.5,0.1,0.6,0
		c0.5-1.6,1.6-0.6,2.4-0.5c0.5,0,1.1,0,1.6,0c0.5-2,0.7-2,2.6-1.5c0.7,0.2,1.5-0.6,2.4,0.1c0-1.2,1-1.3,1.7-1.4
		c2.3-0.5,4.4-1.9,6.9-1.6c1,0.1,2,0.1,3,0.4c0.7,0.2,1.4,0.5,1.1,1.5c1.7,0.5,3.4,0.6,5.2,0.4c1-0.2,1.9,0.2,2.7,0.7
		c0.8,0.5,1.5,0.5,2.4-0.2c-0.4-0.6-1.3-1.1-0.3-1.7c0.8-0.5,1.5-0.4,2.1,0.4c0.7,1,1.8,1.3,2.9,1.2c1.1-0.1,2,0.2,3.1,0.4
		c2.5,0.7,4.9,1.5,7.6,1.1c4.1-0.6,8.1,0.5,12,1.8c0.6,0.2,1.3,0.6,1.5,1.4c-1.1,0.6-1.9-0.7-2.9-0.1c-0.1,0.7,0.6,1,0.6,1.7
		c-1.1,0.9-2.3,1.6-4.1,1.6c2,2.2,0.8,4.5,1,6.6c-0.7,0.2-0.9-0.2-1-0.5c-0.4-1.4-1.4-2.2-2.6-3c-0.8-0.6-1.2-1.5-0.1-2.2
		c0.9-0.6,0.2-1.2,0.2-2.1c-0.7,0.5-1.2,1.1-2.1,0.6c0.3,1,0,1.4-0.9,1.6c-1.5,0.3-3,0.6-4.5,0.2c-0.6-0.2-1.5,0-1.4,0.8
		c0,0.6,0.4,1.2,1.4,1.3c2.1,0.1,4,0.6,5.3,2.6c0.7,1,0.7,2.1,1,3.1c0.1,0.3-0.1,0.6-0.4,0.6c-0.3,0-0.6,0-0.7-0.4
		c-0.2-0.5-0.4-1.1-1-1.6c-0.4,0.7-0.2,1.5-0.3,2.2c-0.1,2-0.2,2.2-2.2,2.5c-0.2,0-0.4,0.1-0.8,0.3c0.6,0.8,1,1.6,1.6,2.2
		c1,1,0.2,1.7-0.3,2.3c-0.8,0.8-1.5,0.2-1.9-0.5c-0.6-0.9-0.9-2-1.9-2.7c-0.5,1.4,0,2.4,0.8,3.5c2.6,3.5,0.7,7.8-3.7,8.4
		c-0.1,0-0.3,0.1-0.4,0.1c-0.6,2-0.6,2-2,2.1c0.9,1.4,2.5,2.8,1.7,4.5c-0.5,1.1-1.8,1.7-3.1,2.6c0.2-1.9-1.3-2.1-2-3
		c-0.3,1.2-0.1,2.2,0.6,3c1.3,1.4,2.2,2.8,1.6,4.8c-0.2,0.5,0.1,0.9,0.7,1c0.5,0.1,1,0.1,1.5,0.2c0.2-1.4,1.1-2.1,2.3-2.5
		c0.7-0.3,1.2-0.6,1.5-1.3c0.9-2.2,1.3-2.3,3.1-0.4c-0.9,0.5-1,1.4-0.9,2.3c0.1,1.1-0.6,2.1-0.6,3.3c0,0.7-0.9,0.9-1.6,0.6
		c-1.5-0.6-3.1-1-4.8-0.4c-0.3,0.6,0.3,1.7-0.9,1.8c-1.1,0.1-1.5-0.9-1.8-1.8c-0.2-0.6-0.5-1.2-1.1-1.6c0,0-0.1-0.1-0.1-0.1
		c-1-1.5-1.6-3.1-2.8-4.5c-0.2-0.2-0.1-0.6,0.2-0.9c1.4,0,1,2.2,2.7,2.1c-0.9-1.7-0.2-3.8-1.8-5.2c-0.8-0.7-0.5-1.9-0.7-2.8
		c-1-0.3-2.2,0.8-2.8-0.6c-0.4-0.9,0-2-0.6-2.9c-0.5-0.1-1.1,0.2-1.6-0.1c-0.6-0.3-1,0-1.3,0.6c-0.1,0.2-0.2,0.4-0.3,0.5
		c-0.7,1.1-1.7,1.8-2.6,2.7c-1,0.9,0.8,2.3-0.4,3.4c0.8,0.7,1.8,1.3,1.2,2.5c-0.2,0.5-0.6,0.8-1.2,0.7c-1-0.1-0.9-0.9-0.9-1.7
		c-1.7,0.1-2.3-0.8-2.3-2.3c-0.1-1.4-0.5-2.5-1.4-3.8c-0.9-1.3-1.1-3.1-3.1-3.3c-0.2,0-0.4-0.5-0.4-0.7c-0.3-1.1-1-1.4-2-0.9
		c-1.2,0.6-2.4,0.2-3.6-0.3c-0.1,0.4,0.1,0.5,0.2,0.7c1.1,1.2,1.1,2-0.1,3.2c-1.7,1.5-3.1,3.2-5.5,4c0.3,0.2,0.3,0.3,0.4,0.3
		c0.8,0,1.8-0.7,2.3,0.4c0.5,1-0.3,1.7-1,2.3c-2.7,2.3-4.2,5.5-6,8.4c-0.6,1-0.7,2-0.3,3c0.9,2.3,0.4,4.3-1.4,6
		c-1.2,1.1-1.9,2.5-1.6,4.2c0.1,0.4,0.1,1-0.2,1.2c-1.4,1.1-1.4,2.8-2.3,4.1c-1.4,2.3-4.7,3.4-7.3,2.7c-1-0.3-1.5-1.2-1.6-2
		c-0.2-2.5-1.3-4.7-2.6-6.8c-1-1.6-1-3.2-0.2-4.9c0.8-1.7,1.3-3.4-0.4-5.1c-1.1-1.1-0.8-2.9-1.2-4.3c-0.8-3.2-3.1-4.6-6.3-3.8
		c-0.8,0.2-1.5,0.5-2.3,0.7c-2.1,0.6-3.7,0.1-4.9-1.8c-0.7-1-1-2.2-1.2-3.4c-0.3-1.7-0.5-3.5-0.9-5.2c-0.4-1.7,0-3.1,1.3-4.2
		c1.8-1.4,3.2-3,3.6-5.3C107,97.6,108.1,97.2,109,96.4z M173.4,122c-0.2-1,0.5-2.5-1.5-2.4C171.9,121,171.9,121,173.4,122
		c0.4,0.9,0.3,2.1,1.7,2.6c0-0.9,0-1.6,0-2.3C174.6,122,174,121.9,173.4,122z M144.5,73.8c-0.9-0.2-1.4,0.1-1.1,0.9
		c0.6,1.3,0,2.2-1,3c-0.9,0.7-0.9,1.4-0.2,2.2c0.6,0.8,0.8,1.6,0.7,2.6c-0.1,1-0.2,2.1,0,3.1c0.2,1.1-0.8,1.9-1.9,1.7
		c-0.3-0.1-0.7-0.2-1-0.3c-0.6-0.1-1.2-0.2-1.5,0.4c-0.3,0.5,0,1,0.4,1.3c0.4,0.3,0.7,0.8,0.5,1.2c-0.5,0.8-0.2,1.6-0.1,2.6
		c-1.3-0.2-2.5-0.3-3.8-0.5c0.1,1.7-1,1.8-2.1,1.5c-1.7-0.4-3.2-0.7-4.9,0.1c-0.5,0.3-1.4,0-1.3,0.9c0.1,0.9,0.6,1.9,1.6,1.6
		c1.4-0.5,2.6,0.1,3.9,0.3c0.1,0.7,0.1,1.5-0.1,2.1c-0.5,1.4-0.3,2.6,0.7,3.8c0.4,0.5,0.8,1,1.1,1.6c1.1,2.6,3.3,4.6,4.1,7.5
		c0.3,1,0.9,0.8,1.7,0.6c2.5-0.9,4.3-2.7,6.1-4.5c0.5-0.5,0.7-1.2,0-1.7c-0.7-0.5-0.9-1.3-1-2.1c-1,0.3-1.6,1.4-2.7,1
		c-0.3-0.5-0.2-1.1-1.1-1.3c-0.8-0.2-0.9-1.2-1-2c0-0.3,0.1-0.7,0.5-0.8c0.9-0.2,1.2,0.5,1.7,1c0.4,0.4,0.7,1,1.3,0.9
		c1-0.1,1.7,0.4,2.4,1.1c1,1,2.1,1.3,3.4,0.6c1.3-0.6,2.1-0.3,2.6,1c0.3,0.7,0.6,1.4,1.6,1c0.3-0.1,1.4,0,1.3,0.8
		c-0.1,1.6,0.6,2.7,1.7,3.8c0.4,0.3,0.4,0.9,0.4,1.4c0,0.7,0,1.3,0.2,1.9c0.1,0.4,0.3,0.9,0.8,1c0.6,0.1,0.7-0.4,1-0.7
		c0.5-0.7,0.7-1.4,0.4-2.2c-0.3-0.9-0.1-1.7,0.8-2.2c1.1-0.7,1.9-1.6,2.5-2.8c0.4-0.7,3.3-1.2,3.9-0.7c0.2,0.2,0.2,0.4,0.3,0.7
		c0.1,0.5,0.3,1.1,0.3,1.6c0,0.9,0.1,1.5,1.3,1.2c1.2-0.3,1.8,0.2,1.8,1.5c-0.1,0.9,0.2,1.7,1.1,2.3c0.2-0.5-0.1-1.4,0.7-1.5
		c0.7-0.1,1.1,0.4,1.5,0.8c0.4,0.5,1,0.9,1.5,1.4c2.4-1.6,2.5-2.1,0.7-4.4c-0.4-0.5-0.8-1.1-1.2-1.7c-0.3-0.6-0.4-1.2,0.2-1.6
		c0.6-0.5,1.2-0.6,1.8,0c0.1,0.6-0.7,0.9-0.3,1.4c0.6,0.2,0.8-0.2,0.7-0.6c-0.1-1.2,0.6-1.4,1.6-1.4c2.4-0.2,4.7-3.2,3.8-5.4
		c-0.9-2.1-1.6-4.7-4.4-5.4c-0.1-0.7,0.1-1.3,0.8-1.6c0.9-0.4,0.8,0.6,1.3,0.9c3.1-1.1,2.6,2.5,4.3,3.3c0.7-0.6,0.9-1.1,0.3-1.8
		c-0.4-0.4-0.7-0.9-1.1-1.4c-0.7-0.9-0.4-1.8,0.7-1.8c1.7,0,1.8-1,1.8-2.2c0-0.8,0.1-1.6,0.1-2.4c0-1.6-1.9-3.2-3.5-3.1
		c-1.3,0.1-1.6-1-1.9-1.9c-0.3-1,0.5-1.3,1.3-1.5c0.5-0.1,1-0.1,1.5,0c1.5,0.5,2.8-0.1,4.1-0.4c0.1-0.6-0.7-1-0.2-1.5
		c0.6-0.6,1.1,0.1,1.6,0.2c0.4-0.5,0.7-1.2,1.5-0.6c1,0.8,0.9,2.1-0.3,3.8c0.9,1,2.3,1.4,2.9,2.6c0.6-2-0.2-3.6-1.1-5.3
		c1.6-0.4,3.1-0.1,4.1-1.4c-0.2-0.9-1.2-1.7,0-2.6c-2.2-0.4-4.2-1.2-6.4-1.3c-0.6,0-1.5-0.6-1.7,0.7c0,0.3-0.8,0.3-1-0.1
		c-0.4-0.9-1.1-0.6-1.8-0.5c-0.9,0.2-1.8,0.3-2.7,0c-1.8-0.6-3.9-0.5-5.6-1.5c-0.4-0.2-1-0.2-1.5,0c-1,0.4-2.1,0.4-3.2,1
		c-1.3,0.7-2.9-0.2-4.2-0.7c-1.4-0.6-2.8-0.7-4.2-0.5c-1.9,0.2-3.7-0.6-5.6-0.1c-0.1-0.9,0.9-1,0.9-1.7c-0.9-0.6-1.9-0.4-2.9-0.6
		c-2.3-0.3-4.3,1.1-6.5,1.4c-0.9,0.1-1.5,0.6-1.5,1.6c-1.1-0.1-2.2-0.6-2.9,0.6c0.2,0.1,0.5,0.3,0.7,0.5c0.5,0.5,0.9,1.1,0.6,1.9
		c-0.2,0.5-0.7,0.7-1.3,0.5c-0.9-0.2-1-0.9-0.9-1.6C144.5,75.3,144.5,74.6,144.5,73.8z M142.9,113.3c-0.6-0.5-1.1-0.2-1.5,0
		c-1.6,0.6-2.9,0-3.8-1.3c-2-2.8-3.9-5.6-5.9-8.4c-0.3-0.4-0.7-0.8-0.2-1.3c0.7-0.6,0.3-1.2,0-1.7c-0.4-0.7-1-0.5-1.6-0.3
		c-1.4,0.5-2.7,0.4-3.9-0.6c-0.4-0.3-1.1-0.6-1.4,0.1c-0.6,1.5-1.5,0.9-2.4,0.4c-0.6-0.3-1.1-0.6-1.8-0.7c-2.2-0.3-2.4-0.6-2.3-2.9
		c-1.4-0.7-2.8-0.2-4.2,0.2c-1.2,0.4-2.3,1-3.6,0.8c-1.4-0.2-2.5,0.2-2.8,1.7c-0.4,2.3-1.7,4-3.6,5.3c-1.3,0.9-1.6,2.2-1.3,3.7
		c0.3,1.2,0.4,2.5,0.7,3.7c0.3,1.3,0.4,2.7,1,3.9c1.1,2.1,2.6,2.8,4.8,2.1c0.8-0.2,1.5-0.5,2.3-0.7c3.5-0.8,6.1,0.9,6.9,4.4
		c0.3,1.4,0.1,3,1.1,4c1.7,1.9,1.3,3.7,0.4,5.7c-0.8,1.6-0.6,3.2,0.4,4.7c1.3,2,2.2,4,2.4,6.4c0.1,0.7,0.4,1.5,1.2,1.8
		c2.4,0.7,5.4-0.4,6.6-2.5c0.7-1.3,0.7-2.9,2.1-3.8c0.1-0.1,0.1-0.5,0.1-0.7c-0.3-2,0.5-3.6,1.9-4.8c1.6-1.5,2-3.3,1.2-5.3
		c-0.4-1.1-0.4-2.3,0.2-3.4c1.8-3.1,3.4-6.3,6.1-8.7C142.4,114.5,143,114.1,142.9,113.3z M142.8,75.9c-0.3-0.3-0.6-0.2-1-0.3
		c-1.2-0.3-2.3,0.6-3.2,0.5c-1.7-0.2-2.9,0.2-4.1,1.2c-0.3,0.3-0.7,0.2-1.1,0.1c-0.9-0.2-1.7,0-1.7,1c-0.4,0.6-0.7-0.6-1.1,0.2
		c-0.4,1-0.9,0.5-1.2-0.1c-0.3-0.5-0.6-0.9-0.6-1.6c0.9-0.4,2,0.4,2.8-0.5c-0.1-0.1-0.2-0.3-0.3-0.4c-0.1-0.1-0.2-0.2-0.4-0.2
		c-3.2-0.5-6.4-1.6-9.6-0.3c-0.3,0.1-0.4,0.4-0.6,0.7c-1.1,1.4-1.8,3.3-4,3.5c-0.7,0-1,0.5-1,1.1c0,0.3,0.1,0.6,0.5,0.7
		c0.5,0.1,1,0,1.5-0.1c1.6-0.4,1.9-0.1,1.8,1.5c0,0.3,0,0.5,0.2,0.7c1.1-0.1,2.2-1,1.9-2.3c-0.3-1.6,0.4-2.5,1.4-3.5
		c0.4-0.4,0.8-0.9,1.4-0.5c0.7,0.4,0.2,1,0,1.4c-0.3,0.7-0.9,1.3,0.1,1.9c0.8-0.3,1.6-1,2.5-0.3c0.3,0.2,0.4,0.5,0.2,0.8
		c-0.5,0.9-1.5,0.2-2.2,0.5c0.4,0.5,0.8,0.9,0.4,1.3c-0.8,0.6-0.9-0.5-1.4-0.3c-0.3,0.6,0.3,1.1,0.1,1.5c-0.4,0.5-0.9,0.5-1.4,0.5
		c-1.1,0.1-2.2,0.1-3.3,0.3c-1,0.2-2.1,0.9-1.6-1.1c0.1-0.3-0.3-0.7-0.4-1.1c0.1,1.8-0.8,2.8-2.2,3.8c-1.3,0.9-2.3,2.3-4.2,2.5
		c1.3,0.6,1.5,1.7,1.1,2.7c-0.4,1.1-1.4,0.3-2.1,0.3c-0.2,0-0.5-0.1-0.7-0.1c-0.5-0.1-0.9,0.1-0.9,0.6c-0.1,1.1-0.6,2.1-0.3,3.3
		c0.7-0.1,1.4-0.7,2.1-0.3c1.5,0.8,2.1-0.2,2.6-1.3c0.4-0.8,1-1.3,1.6-1.8c0.9-0.8,2.1-0.8,3.1-1.6c0.5-0.4,1.5-1.3,2.4-0.7
		c1.1,0.7,2.3,1.2,3.1,2.3c0.2,0.3,0.4,0.6,0.4,1.1c-0.2,1.5,0.8,2.3,2.4,2.1c-1.1-1.9-1.1-1.8,1.1-2.6c0.9-0.3,1.6-0.9,1.6-2
		c0-0.9,0.8-1.3,1.3-1c1.1,0.8,2.3,0.3,3.3,0.7c1.7,0.7,3.4,0.3,5,0.9c0.5-0.9,0.7-1.7-0.2-2.5c-0.5-0.5-0.4-1.2-0.1-1.8
		c0.6-1,1.4-1.3,2.5-1c0.6,0.2,1.7,0.6,1.8-0.6c0-1.6,0.4-3.2-0.4-4.7c-0.9-1.6-1-3,0.8-4.2C142.7,76.6,142.9,76.3,142.8,75.9z
		 M110.2,96.6c0.8,0.5,1.5,0.1,2.2-0.1c1.4-0.5,2.9-1,4.4-1c1.1,0,2.2,0.3,1.8,1.9c-0.1,0.6,0.1,1,0.7,1.1c1.5,0.2,2.8,0.8,4.1,1.7
		c0.4-1.3,1.3-2,2.3-1.3c1.5,1.1,3,1.2,4.6,0.6c0.3-0.1,0.8,0,1.2,0.1c0.2-0.7,0.3-1.4,0.4-2c-1.6-1.1-3-1-4.4,0.1
		c-0.8,0.6-2.3,0.2-2.6-0.8c-0.1-0.4-0.3-0.4-0.5-0.5c-1-0.4-1.8-1-2.4-2.1c-0.2,1.2-0.5,2.1-1.8,1.8c-0.2-0.9,1.1-1.5,0.4-2
		c-1.1-0.8-1.9-1.8-2.9-2.9c-0.6,0.7-1.2,0.9-1.8,1.2c-1.1,0.5-2.3,0.9-2.8,2.3C112.8,95.8,111.8,96.6,110.2,96.6z M181.5,123.3
		c0.1-2.2,0.9-4.1,0.9-6.3c-1.1,0.6-1.1,1.7-1.7,2.3c-0.7,0.7-1.8,0.6-2.5,1.4c-0.1,0.1-0.3,0.3-0.4,0.4c-0.3,0.6-0.2,1.1,0.4,1.3
		C179.3,122.8,180.4,123,181.5,123.3z M128.3,93c2.1-1.6,4.2,0.1,6.3-0.1c0.2-1-0.4-1.2-1.1-1.5c-1.4-0.5-3,0.5-4.2-1.3
		C129,91.4,128.8,92.2,128.3,93z M123.1,78.9c-0.4,0.2-1.1,0.3-0.9,0.8c0.5,1.7-0.4,2.9-1.2,4.4c0.9-0.1,1.5-0.2,2.1-0.3
		C123.6,82.1,123.7,80.5,123.1,78.9z M141.1,101c-0.3,1.9,1.8,1.8,1.9,3.2c0.6-0.4,1.1-0.5,1.5-1.2
		C142.8,103.4,142.3,101.8,141.1,101z M172.2,116.3c0.2,1.5,0.7,2.7,2.4,3.6C173.8,118.4,173.9,116.9,172.2,116.3z M132.5,102.6
		c-0.2,0.1-0.3,0.1-0.5,0.2c1,1.6,2,3.1,3,4.7C134.7,105.5,133.6,104,132.5,102.6z M110.7,86.8c1-0.1,1.9-0.3,2.8-0.8
		c-0.6-0.4-1.1-0.8-1.7-1.3C111.8,85.6,110.9,85.9,110.7,86.8z"/>
	<path d="M196.5,127.9c1.3,0.4,1.7,1.4,1.9,2.5c0.6,2.7,1.5,5.2,3,7.5c0.8,1.2,0.5,3-0.7,4.3c-1.3,1.4-2.7,2.6-3.6,4.4
		c-0.6,1-1.7,0.9-2.9,0.9c0.6,1.2,0,2.1-0.8,2.9c-0.4,0.4-0.8,0.9-1.4,0.7c-0.5-0.1-0.5-0.7-0.5-1.1c0-0.6-0.1-1.6,0.7-1.6
		c0.9,0,0.7-0.6,0.9-1c-2-0.8-3.7-2-5.1-3.7c-1.2-1.6-4.4-1.5-6.7,0c-0.6,0.4-1.2,0.8-1.8,1.1c-0.6,0.3-1.2,0.5-2,0.1
		c0.6-2,0.4-4,0.4-6c0-0.3,0.1-0.8,0.3-1c1.7-1.2,2.5-3.6,4.8-4.1c1.4-0.3,2.3-1,2.7-2.5c0.1-0.2,0.2-0.5,0.3-0.7
		c0.3-0.5,0.6-1,1.2-1c0.7,0,0.7,0.8,1,1.2c0.5,0,0.5-0.4,0.7-0.7c0.9-1.6,1.9-2.1,3.7-1.6c0.7,0.2,1.2,0.6,1,1.3
		c-0.7,1.9,0.7,2,2,2.3C196,130.9,195.5,129.3,196.5,127.9z M196.6,132.6c-2.2,0.9-3.9-0.2-3.6-2.4c0.1-0.5,0-0.8-0.5-0.9
		c-1.1-0.1-2.2-0.5-2.8,1c-0.2,0.6-0.5,1.3-1.2,1.5c-1,0.2-0.8-1-1.4-1.4c-0.2,0.2-0.4,0.4-0.5,0.6c-0.6,2.1-2.1,3.2-4.2,3.8
		c-1.7,0.5-2.3,2.5-3.8,3.5c-0.2,0.1-0.2,0.6-0.2,0.8c0,1.7,0,3.4,0,5.1c0.9,0,1.5-0.6,2.1-1c1.5-0.9,3.1-1.7,4.7-1.6
		c2.2,0.1,3.7,2,5.1,3.4c1.5,1.5,3.1,1.7,4.9,1.7c0.5,0,0.9-0.2,1.1-0.6c0.9-1.8,2.5-3,3.7-4.5c0.9-1,1.4-2.3,0.5-3.6
		c-1.5-2.2-2.4-4.6-2.9-7.2c-0.2-0.7-0.3-1.5-1-2.1C196.3,130.1,196.4,131.3,196.6,132.6z"/>
	<path d="M190.3,122.6c-0.2-0.7,0-1.3,0.8-1.5c1.4-0.3,1.4,1,2,1.7c2.2-1.1,5.5-0.1,6.8,2.1c0.6,1,1,2.1,2.1,2.7
		c-1.3,1.1-1.3,1.1-3.1-1.2c-0.7,0-0.8,0.8-1.4,1.1c-0.6,0.3-1.1-0.7-1.8-0.1c-0.5,0.4-1.1,0.1-1.6-0.3c0.7-1.6,0.4-2.2-1.2-2.4
		c-0.6-0.1-1-0.3-1.3-0.9c-0.2-0.5-0.4-0.8-1-0.7C190.5,122.7,190.4,122.6,190.3,122.6z M195.2,126.7c0.9-1.2,1-2.5,0.8-3.9
		c-0.9,0.1-1.9-0.4-2.3,0.9C194.4,124.5,195.9,125.1,195.2,126.7z M199.6,125.6c-0.7-1.3-1.5-1.8-2.7-2c0.1,1.1-0.6,2,0.1,3.1
		C197.8,126.3,198.2,125.2,199.6,125.6z"/>
	<path d="M184.6,116.9c-0.4-0.7,0.1-1.2,0.7-1.7c-1.3-0.5-1-1.9-1.3-2.8c-0.2-0.6-0.3-1.4-0.7-1.9c-0.8-0.9-0.6-1.7,0.3-2.4
		c1.2,0.6,1.6,1.3,0.5,2.7c2.6-0.1,3,1.5,3.3,3.4c0.1,0.4,0.4,0.8,0.6,1.2c0.5,0.8,0.1,1.2-0.5,1.7c-0.6,0.6-1,0.6-1.4-0.1
		C185.6,116.3,185.2,117.2,184.6,116.9z"/>
	<path d="M191.3,92.2c-0.1,0.6-0.8,0.4-0.8,1c0.2,0.6,0.7,1.1,0.8,1.8c0.4,2.1,0.1,2.8-1.9,3.6c-0.7,0.3-1.2,0.7-1.7,1.2
		c-0.3,0.4-0.7,1-1.3,0.4c-0.5-0.5-0.4-1.1-0.1-1.7c0.2-0.4,0.7-0.6,1.1-0.7c0.9-0.2,1.2-0.8,1.5-1.7c0.5-1.4,0.9-2.6-0.1-3.9
		c-0.4-0.5,0.3-0.9,0.8-1C190.4,91.1,191,91.4,191.3,92.2z M189.3,97.7c1.5-0.4,1.7-0.9,1.1-2.8C189.3,95.6,189.7,96.8,189.3,97.7z"
		/>
	<path d="M186.5,119.4c0.5,0.1,1,0.3,1.1,0.9c0.1,0.5-0.2,0.8-0.6,1c-1.1,0.5-1.5,1.3-0.8,2.4c0.3,0.4,0.5,0.9,0.1,1.4
		c-0.3,0.4-0.7,0.3-1.1,0.1c-0.1-0.1-0.2-0.1-0.3-0.1c-2.4,1.2-1.5-0.6-1.5-1.6c0-0.2-0.1-0.5-0.1-0.7
		C183.4,120.9,184.8,119.4,186.5,119.4z"/>
	<path d="M138.1,139.8c-0.2-2.3-0.8-4.3-0.8-6.5c0-0.6,0.2-1.3,0.8-1.5c1.6-0.4,2.6-1.5,3.2-3.1
		C143.1,130.4,140.7,138.8,138.1,139.8z M141.3,130.7c-0.9,0.7-1.4,1.4-2.3,1.5c-0.9,0.1-1.1,0.8-1,1.6c0.2,1.7,0.4,3.3,0.7,5.4
		C140.8,136.5,140.7,133.6,141.3,130.7z"/>
	<path d="M72,108.1c-1.5,1.2-2.7,0.9-4.3,0c-1.3-0.7-2.5-1.9-4.2-1.6c-0.5,0.1-1.4,0.2-1.4-0.7c0-0.9,0.9-0.7,1.6-0.7
		c0.9,0,1.7,0.4,2.5,0.7c1.3,0.6,2.3,1.8,3.9,1.5C70.8,107.3,71.4,107.6,72,108.1z"/>
	<path d="M124.3,69.6c-0.3,0.8-0.9,1.3-0.8,1.9c-0.7,0.3-1-0.3-1.3-0.5c-0.4,0.1-0.5,0.3-0.6,0.6c-0.3,0.8-0.9,1.3-1.8,0.8
		c-0.9-0.5-1.3-1.4-1.3-2.4c0-0.2,0.3-0.4,0.6-0.4C120.9,69.4,122.5,69.1,124.3,69.6z M119.4,70.3c0,0.8,0.3,1.5,0.9,1.5
		c1,0.1,0.7-1.2,1.7-1.7C121,70.2,120.2,70.2,119.4,70.3z"/>
	<path d="M202.5,122.2c0.1,1,0.7,1.4,1.7,1.4c-0.3,1.2-1.1,1.9-2,2.4c-0.5,0.3-1,0.2-1.4-0.2c-0.4-0.4-0.2-0.9,0.1-1.2
		c0.4-0.4,0.5-0.8,0.5-1.3C201.4,122.7,201.6,122.3,202.5,122.2z"/>
	<path d="M107,77.1c0,1.4-0.8,1.5-1.6,1.6c-1,0-2.2,0.4-3-0.5c-0.4-0.5-0.2-1.1,0.5-1.1C104.2,77.2,105.6,77.2,107,77.1z"/>
	<path d="M190.3,122.6c0.1,0.1,0.2,0.2,0.2,0.3c-0.6,1.1-1.6,0.9-2.8,1.2c0.6-1.2,0.8-2.1,0.3-3.1c-0.2-0.3-0.1-0.9,0.3-1.3
		c0.2-0.2,0.5-0.2,0.7,0c0.5,0.3,0.4,0.9,0.3,1.3C189.1,121.8,189.3,122.4,190.3,122.6z"/>
	<path d="M152.2,70.1c-0.1,0.4-0.3,0.8-0.7,0.8c-1-0.1-1.9-0.4-2.9-0.7c-0.3-0.1-0.4-0.5-0.3-0.8c0.1-0.4,0.4-0.6,0.8-0.6
		c1,0,1.8,0.8,2.8,0.8C152,69.7,152.1,70,152.2,70.1z"/>
	<path d="M138,69.1c-2.6,1.4-3.3,1.4-4.4,0.1C134.9,68.2,136.2,68.8,138,69.1z"/>
	<path d="M182.5,113.1c0.9,0.3,1.2,0.7,1.1,1.3c-0.2,0.7-0.6,1.2-1.5,1.3C181.7,114.7,182.8,114.1,182.5,113.1z"/>
	<path d="M66.4,109.8c-0.5-0.1-1-0.4-0.9-1c0.1-0.6,0.7-0.7,1.1-0.7c0.5,0,0.7,0.3,0.7,0.8C67.3,109.5,67,109.8,66.4,109.8z"/>
	<path d="M82,156.4c-0.5-0.1-0.9-0.3-0.9-0.8c0-0.6,0.4-0.7,0.9-0.7c0.5,0,1,0.1,1,0.7C83,156.1,82.6,156.3,82,156.4z"/>
	<path class="st4" d="M35.4,81.4c0.2-0.8,0.6-1,1.2-1c0.2,0,0.5,0,0.8,0c0.9-0.1,1.7-0.5,1.7-1.4c0-1-1-0.3-1.6-0.6
		c0.1-0.6,0.5-0.8,1.1-0.6c1.9,0.5,3.5-0.2,5-1.3c1.3-0.9,2.6-1.9,4.3-1c0.4,0.2,0.6-0.1,1-0.3c1.2-0.5,2.4-0.4,3.6,0.2
		c0.4,0.2,0.9,0.7,1.2,0.6c1.5-0.7,3.1-0.1,4.6-0.3c1.7-0.1,3.4-0.5,4.9,0.8c1.1,0.9,2.3,0.3,3.4-0.2c0.6-0.3,0.4-1.3-0.1-1.3
		c-1.5,0.3-2.4-1.9-4-1c2.4-1.3,4.7-0.1,6.9-0.1c0.6,1.9-1.7,1-1.8,2.3c1.1,0.5,2.4,0,3.4,0.2c1.9,0.3,1.7-1.3,2.5-2.2
		c1.1,1.1,0.5,2.9,2.1,3.5c-0.9,0.4-0.9,0.4-1.2-0.4c-2.9-0.2-4.5,1.8-6.4,3.5c-0.8,0.7-0.7,1.8,0.1,2.2c1,0.5,1.6,1.7,2.9,1.5
		c-0.1,0.9-0.8,1.6-0.3,2.6c1.3-0.1,2.4-0.4,2.6-1.9c0-0.1,0.1-0.4,0.1-0.4c2.3-0.8,2-3.2,3.2-4.8c0.3-0.5,0.8-0.7,1.3-0.6
		c1,0.2,1.5,1.1,2,1.9c0.1,0.2-0.1,0.5,0.2,0.7c0.9,0.2,1.8,0,2.7-0.7c0.2,1.3,0.5,2.3,1.3,3.2c0.7,0.7-0.1,1.7-1.5,1.8
		c-1.3,0-2.5,0.3-3.7,0.6c-0.4,0.1-0.7,0.3-1,0.8c1,0.3,1.4,1.1,1.4,2.1c-0.2,0.3-0.6,0.4-1.1,0.7c-0.3-1.2-1.1-0.9-1.7-0.4
		c-1.5,1.1-2.9,2.3-4.3,3.5c-1.8,1.5-3.6,3.2-5.4,4.6c-0.8,0.7-1.4,1.4-1.6,2.4c-0.5,0.3-1,0.1-1.3-0.1c-1.2-0.5-2.2-0.8-3.3,0.3
		c-0.5,0.5-1.3,0.3-2,0.3c-2.3,0.1-3.9,1.8-3.8,4.1c0,0.4,0.1,0.9,0.2,1.3c0.2,0.9-0.1,2.2,1.1,2.4c1.3,0.3,2.7,0.3,3.6-1.2
		c0.1-0.2,0.3-0.2,0.5-0.4c0.4,0.8-0.3,1.2-0.5,1.7c-0.1,0.4-0.4,0.8,0,1.3c0.3,0.5,0.8,0.6,1.3,0.4c1.3-0.5,1.6,0.1,1.2,1.2
		c-0.2,0.7-0.1,1.4-0.1,2.2c-1.4-1.7-3.9-1.4-5.2-3.3c-0.7-1-2.2-1-3.5-1.3c-1.5-0.3-2.4-0.8-2.2-2.5c0.1-0.7-0.3-1.4-0.7-2
		c-1.1-1.5-1.9-3-2.4-4.8c-0.1-0.2-0.2-0.6-0.3-0.7C45.3,98.9,46,96.5,45,95c-0.5-0.8,0.2-1.5,0.6-2.2c0.7-1,1.4-1.9,1.7-3.2
		c0.3-1.1,0-2.3,0.1-3.4c0-0.6,0.2-1.1,0.4-1.8c-1.6-0.6-1.3-1.6-0.6-2.8c0.6-1,0.1-1.9-1-1.8c-2.1,0.1-4.3,0.4-6.3,1.2
		C37.7,82.2,37.8,82.3,35.4,81.4z"/>
	<path class="st4" d="M79.3,144.1c0,0.7,0.5,0.8,0.9,1c0.3,0.2,0.6,0.4,0.5,0.8c-0.1,0.4-0.5,0.5-0.9,0.4c-1.9-0.6-2.3,1.7-3.8,1.9
		c0.2,1.3,0.3,2.7-0.4,4c1.9,0.7,1.1,2.6,1.8,3.8c0.5,1,1.4,1.5,2.3,2c-0.4,0.7-1,0.4-1.3,0.1c-0.9-0.8-1.9-1.4-3-1.9
		c-2.2-1.2-2.5-3.5-2.8-5.6c-0.8-5.3-0.6-10.7-1.5-16c-0.2-1.4-0.9-2.3-2.2-2.8c-1.2-0.4-2-1.2-2.6-2.4c-0.5-1.1-1.2-2.2-2-3.2
		c-1.4-1.6-1.2-3.7,0.4-5.2c0.7-0.7,1-1.4,0.9-2.4c-0.2-2.3,1.2-4.5,3.2-5.4c0.3-0.1,0.5-0.3,0.8-0.1c1.1,0.8,2.1,0.6,3.2,0.1
		c0.9-0.4,1.4,0.2,1.8,0.9c0.7,1.3,1.6,2,3.2,2.1c1.4,0.1,2.3,1.1,2.4,2.5c0.2,1.5,0.9,2.3,2.2,2.7c0.5,0.1,0.9,0.4,1.2,0.8
		c0.7,0.8,1.6,1.1,2.7,1.1c3.1,0.2,4.3,2.7,2.5,5.2c-1.2,1.7-1.8,3.4-1.7,5.4c0.1,2.1-0.4,2.6-2.4,3.1c-1,0.2-1.5,0.7-1.7,1.8
		c-0.3,1.5-1.1,2.9-1.3,4.4c-0.1,0.5-0.5,0.7-1,0.7C80.3,143.7,79.7,143.6,79.3,144.1z"/>
	<path class="st4" d="M108.7,69.4c-0.9,0.5-1.3,1.6-1.9,2.1c-1.6,1.1-1.9,3.5-4.3,3.7c-1.3,0.1-2.5,1-3.7,1.6
		c-0.7,0.3-1.5,0.8-2.2,0.9c-1.7,0.1-3,0.7-3.7,2.4c-0.2,0.6-1,0.8-1.7,0.6c-0.7-0.2-0.7-0.8-0.7-1.3c-0.1-1-0.6-2,0.6-2.9
		c1.1-0.9,0.2-4.5-1.2-5.2c0.1-0.4,0.2-0.7,0.3-0.9C96.3,68.4,102.4,67.3,108.7,69.4z"/>
	<path class="st4" d="M77.4,74.6c1.3-0.6,2.5-1.8,4.1-1.2c1.4,0.5,2.8,1,3,2.9c0.5,0,1,0.1,1.6,0.1c-0.9,1.2-1.9-0.2-2.7,0.3
		c-0.5,0.5,0.2,0.9,0.1,1.4c-0.6,0.6-1.4-0.3-1.9,0.3c-0.2,0.6,0.6,0.6,0.5,1.2c-0.9-0.3-1.2-1.1-1.9-1.5c0.2-0.8,1.4-0.5,1.3-1.6
		c-1.1-1-2-2.6-4-0.7c0.1-1-1.6-1.5-0.1-2.5C77.8,73.9,76.9,74.1,77.4,74.6z"/>
	<path class="st4" d="M90.7,68.8c-1.5,0.3-3,0.6-4.5,1c-1.2,0.3-2.3,0.7-3.1,1.7c-0.3,0.5-0.8,0.7-1.3,0.2c-0.6-0.6-1.3-1-2.3-1.5
		c2.2-0.2,3.8-1.5,5.6-1.2C87,69.2,88.8,68.5,90.7,68.8z"/>
	<path class="st4" d="M81.3,89.2c-0.4-0.4-1.1,0-1.6-0.5c0.6-0.3,1.2-0.6,1-1.5c0.6,0,1.1,0,1.6,0C82,87.8,81.6,88.5,81.3,89.2
		C81.2,89.2,81.3,89.2,81.3,89.2z"/>
	<path class="st4" d="M76.6,75.5c-0.5,0.4-0.9,0.6-1.3,0.5c-0.8-1.2-0.9-2.1,0.9-2.6C76.1,74.2,75.7,75,76.6,75.5z"/>
	<path class="st4" d="M211.4,147.2c-0.6,0.3-1.1,0.7-1.9,0.8c0.8-1.1,0.5-2.2,0.8-3.5C211.4,145.2,211.2,146.2,211.4,147.2z"/>
	<path class="st4" d="M144.5,73.8c0,0.8,0,1.5,0,2.2c0,0.7,0.1,1.4,0.9,1.6c0.5,0.1,1,0,1.3-0.5c0.3-0.8,0-1.4-0.6-1.9
		c-0.2-0.2-0.5-0.3-0.7-0.5c0.7-1.3,1.8-0.7,2.9-0.6c0-1,0.7-1.5,1.5-1.6c2.2-0.3,4.1-1.7,6.5-1.4c1,0.1,2-0.1,2.9,0.6
		c0,0.7-1,0.7-0.9,1.7c1.9-0.4,3.7,0.3,5.6,0.1c1.5-0.1,2.8,0,4.2,0.5c1.3,0.5,3,1.4,4.2,0.7c1.1-0.6,2.1-0.6,3.2-1
		c0.5-0.2,1-0.2,1.5,0c1.8,1,3.8,0.9,5.6,1.5c0.9,0.3,1.8,0.2,2.7,0c0.7-0.1,1.4-0.4,1.8,0.5c0.2,0.4,0.9,0.5,1,0.1
		c0.2-1.3,1.1-0.8,1.7-0.7c2.1,0.1,4.1,0.9,6.4,1.3c-1.3,0.9-0.2,1.7,0,2.6c-1,1.3-2.5,1-4.1,1.4c0.9,1.7,1.8,3.3,1.1,5.3
		c-0.6-1.2-2-1.6-2.9-2.6c1.2-1.7,1.3-3,0.3-3.8c-0.8-0.7-1.1,0-1.5,0.6c-0.5-0.1-1-0.8-1.6-0.2c-0.5,0.5,0.3,0.9,0.2,1.5
		c-1.3,0.3-2.6,1-4.1,0.4c-0.4-0.2-1-0.1-1.5,0c-0.8,0.2-1.6,0.5-1.3,1.5c0.3,0.9,0.6,2,1.9,1.9c1.6-0.1,3.5,1.5,3.5,3.1
		c0,0.8-0.1,1.6-0.1,2.4c0,1.3-0.1,2.2-1.8,2.2c-1.1,0-1.4,0.9-0.7,1.8c0.4,0.5,0.7,1,1.1,1.4c0.6,0.7,0.4,1.2-0.3,1.8
		c-1.7-0.7-1.2-4.4-4.3-3.3c-0.4-0.3-0.4-1.3-1.3-0.9c-0.7,0.3-0.9,0.9-0.8,1.6c2.8,0.7,3.5,3.3,4.4,5.4c0.9,2.2-1.4,5.2-3.8,5.4
		c-0.9,0.1-1.7,0.2-1.6,1.4c0,0.4-0.1,0.8-0.7,0.6c-0.3-0.6,0.4-0.9,0.3-1.4c-0.6-0.6-1.2-0.5-1.8,0c-0.5,0.4-0.5,1.1-0.2,1.6
		c0.4,0.6,0.8,1.2,1.2,1.7c1.8,2.3,1.8,2.9-0.7,4.4c-0.5-0.5-1.1-0.9-1.5-1.4c-0.4-0.5-0.8-1-1.5-0.8c-0.8,0.1-0.4,1-0.7,1.5
		c-0.9-0.6-1.1-1.4-1.1-2.3c0.1-1.3-0.6-1.8-1.8-1.5c-1.1,0.3-1.3-0.3-1.3-1.2c0-0.5-0.2-1.1-0.3-1.6c-0.1-0.2-0.1-0.5-0.3-0.7
		c-0.5-0.5-3.5-0.1-3.9,0.7c-0.6,1.1-1.4,2.1-2.5,2.8c-0.9,0.5-1.1,1.3-0.8,2.2c0.3,0.9,0.1,1.5-0.4,2.2c-0.3,0.4-0.4,0.9-1,0.7
		c-0.5-0.1-0.7-0.6-0.8-1c-0.1-0.6-0.1-1.3-0.2-1.9c0-0.5,0-1.1-0.4-1.4c-1.1-1-1.9-2.1-1.7-3.8c0.1-0.8-1.1-0.9-1.3-0.8
		c-1.1,0.4-1.4-0.3-1.6-1c-0.5-1.3-1.3-1.6-2.6-1c-1.3,0.7-2.4,0.3-3.4-0.6c-0.7-0.6-1.3-1.2-2.4-1.1c-0.6,0.1-0.9-0.5-1.3-0.9
		c-0.5-0.5-0.8-1.2-1.7-1c-0.4,0.1-0.5,0.5-0.5,0.8c0.1,0.8,0.2,1.8,1,2c0.9,0.2,0.8,0.9,1.1,1.3c1.1,0.3,1.8-0.7,2.7-1
		c0.1,0.8,0.3,1.6,1,2.1c0.7,0.5,0.5,1.2,0,1.7c-1.8,1.8-3.7,3.6-6.1,4.5c-0.8,0.3-1.4,0.4-1.7-0.6c-0.8-2.8-3-4.8-4.1-7.5
		c-0.3-0.6-0.7-1.1-1.1-1.6c-0.9-1.2-1.2-2.4-0.7-3.8c0.2-0.7,0.2-1.4,0.1-2.1c-1.3-0.2-2.5-0.7-3.9-0.3c-1,0.3-1.5-0.7-1.6-1.6
		c-0.1-1,0.8-0.7,1.3-0.9c1.7-0.8,3.2-0.6,4.9-0.1c1.1,0.3,2.2,0.1,2.1-1.5c1.3,0.2,2.5,0.3,3.8,0.5c-0.1-1-0.4-1.8,0.1-2.6
		c0.2-0.4-0.1-0.9-0.5-1.2c-0.4-0.4-0.7-0.8-0.4-1.3c0.3-0.6,0.9-0.5,1.5-0.4c0.3,0.1,0.7,0.2,1,0.3c1.1,0.2,2.1-0.5,1.9-1.7
		c-0.2-1.1-0.1-2.1,0-3.1c0.1-0.9-0.1-1.8-0.7-2.6c-0.6-0.8-0.6-1.6,0.2-2.2c1-0.8,1.5-1.6,1-3C143,73.8,143.6,73.6,144.5,73.8z"/>
	<path class="st4" d="M142.9,113.3c0.1,0.8-0.5,1.2-1,1.7c-2.7,2.4-4.3,5.6-6.1,8.7c-0.6,1-0.7,2.2-0.2,3.4c0.8,2.1,0.4,3.8-1.2,5.3
		c-1.4,1.3-2.2,2.8-1.9,4.8c0,0.2,0,0.6-0.1,0.7c-1.4,0.9-1.4,2.6-2.1,3.8c-1.2,2.1-4.2,3.2-6.6,2.5c-0.9-0.3-1.2-1-1.2-1.8
		c-0.2-2.4-1.1-4.5-2.4-6.4c-1-1.5-1.1-3.1-0.4-4.7c0.9-2,1.3-3.8-0.4-5.7c-1-1-0.8-2.7-1.1-4c-0.8-3.5-3.4-5.2-6.9-4.4
		c-0.8,0.2-1.5,0.5-2.3,0.7c-2.2,0.7-3.7,0.1-4.8-2.1c-0.6-1.2-0.8-2.6-1-3.9c-0.3-1.2-0.4-2.5-0.7-3.7c-0.3-1.5,0-2.8,1.3-3.7
		c1.9-1.3,3.1-3,3.6-5.3c0.3-1.4,1.4-1.9,2.8-1.7c1.3,0.2,2.4-0.4,3.6-0.8c1.4-0.4,2.8-0.9,4.2-0.2c-0.2,2.2,0.1,2.5,2.3,2.9
		c0.7,0.1,1.2,0.4,1.8,0.7c0.9,0.5,1.8,1,2.4-0.4c0.3-0.7,1-0.4,1.4-0.1c1.2,1,2.5,1.2,3.9,0.6c0.6-0.2,1.2-0.4,1.6,0.3
		c0.3,0.6,0.7,1.1,0,1.7c-0.5,0.5-0.1,0.9,0.2,1.3c1.9,2.8,3.9,5.6,5.9,8.4c0.9,1.3,2.2,1.8,3.8,1.3
		C141.9,113.1,142.4,112.7,142.9,113.3z"/>
	<path class="st4" d="M142.8,75.9c0.1,0.4-0.2,0.7-0.5,0.9c-1.7,1.1-1.6,2.5-0.8,4.2c0.8,1.5,0.4,3.2,0.4,4.7c0,1.2-1.2,0.7-1.8,0.6
		c-1.2-0.3-2-0.1-2.5,1c-0.3,0.6-0.4,1.4,0.1,1.8c0.9,0.8,0.7,1.5,0.2,2.5c-1.6-0.6-3.3-0.2-5-0.9c-1-0.4-2.2,0.1-3.3-0.7
		c-0.5-0.4-1.2,0.1-1.3,1c-0.1,1-0.7,1.6-1.6,2c-2.2,0.8-2.2,0.8-1.1,2.6c-1.6,0.2-2.6-0.6-2.4-2.1c0.1-0.5-0.1-0.8-0.4-1.1
		c-0.8-1.1-2-1.6-3.1-2.3c-0.8-0.5-1.9,0.3-2.4,0.7c-1,0.7-2.2,0.7-3.1,1.6c-0.6,0.6-1.3,1-1.6,1.8c-0.5,1.1-1.1,2.1-2.6,1.3
		c-0.7-0.3-1.3,0.3-2.1,0.3c-0.3-1.2,0.2-2.3,0.3-3.3c0-0.5,0.4-0.6,0.9-0.6c0.2,0,0.5,0.1,0.7,0.1c0.7,0,1.7,0.8,2.1-0.3
		c0.4-1,0.3-2.1-1.1-2.7c1.8-0.2,2.8-1.6,4.2-2.5c1.4-0.9,2.3-2,2.2-3.8c0.1,0.4,0.5,0.8,0.4,1.1c-0.5,2,0.6,1.3,1.6,1.1
		c1.1-0.2,2.2-0.2,3.3-0.3c0.5,0,1,0,1.4-0.5c0.2-0.5-0.4-0.9-0.1-1.5c0.5-0.2,0.5,0.9,1.4,0.3c0.3-0.4,0-0.8-0.4-1.3
		c0.7-0.3,1.7,0.4,2.2-0.5c0.2-0.3,0-0.6-0.2-0.8c-0.9-0.7-1.7-0.1-2.5,0.3c-1-0.6-0.4-1.3-0.1-1.9c0.2-0.5,0.8-1,0-1.4
		c-0.6-0.4-1,0.1-1.4,0.5c-1,0.9-1.7,1.9-1.4,3.5c0.2,1.3-0.8,2.2-1.9,2.3c-0.2-0.2-0.2-0.4-0.2-0.7c0-1.6-0.3-1.9-1.8-1.5
		c-0.5,0.1-1,0.3-1.5,0.1c-0.3-0.1-0.5-0.3-0.5-0.7c0.1-0.6,0.4-1,1-1.1c2.2-0.2,2.9-2.1,4-3.5c0.2-0.2,0.3-0.5,0.6-0.7
		c3.3-1.2,6.4-0.2,9.6,0.3c0.1,0,0.3,0.1,0.4,0.2c0.1,0.1,0.2,0.2,0.3,0.4c-0.8,0.9-1.9,0.1-2.8,0.5c0,0.7,0.3,1.1,0.6,1.6
		c0.3,0.5,0.8,1.1,1.2,0.1c0.3-0.8,0.7,0.4,1.1-0.2c0-1,0.8-1.2,1.7-1c0.4,0.1,0.8,0.2,1.1-0.1c1.2-1,2.4-1.5,4.1-1.2
		c0.9,0.1,2-0.8,3.2-0.5C142.2,75.7,142.6,75.6,142.8,75.9z"/>
	<path class="st5" d="M110.2,96.6c1.5,0,2.6-0.8,3.1-2.1c0.5-1.4,1.7-1.8,2.8-2.3c0.6-0.3,1.3-0.5,1.8-1.2c1,1,1.8,2.1,2.9,2.9
		c0.8,0.5-0.6,1.1-0.4,2c1.3,0.3,1.6-0.6,1.8-1.8c0.7,1.1,1.5,1.7,2.4,2.1c0.2,0.1,0.4,0.1,0.5,0.5c0.3,0.9,1.8,1.4,2.6,0.8
		c1.4-1.1,2.8-1.2,4.4-0.1c-0.1,0.7-0.3,1.3-0.4,2c-0.5,0-0.9-0.2-1.2-0.1c-1.7,0.6-3.1,0.5-4.6-0.6c-1-0.7-1.9,0-2.3,1.3
		c-1.3-0.9-2.6-1.5-4.1-1.7c-0.6-0.1-0.9-0.5-0.7-1.1c0.3-1.6-0.7-1.8-1.8-1.9c-1.5,0-3,0.5-4.4,1C111.8,96.7,111,97.1,110.2,96.6z
		 M117.5,92.6c-0.6,0.3-0.6,0.8-0.6,1.4c0,0.4,0.3,0.7,0.7,0.9c0.3,0.1,0.5,0.1,0.7-0.1c0.3-0.4,0.2-0.8-0.1-1.1
		C117.9,93.4,118,92.8,117.5,92.6z"/>
	<path class="st4" d="M181.5,123.3c-1.2-0.3-2.3-0.5-3.3-0.9c-0.6-0.2-0.8-0.8-0.4-1.3c0.1-0.2,0.3-0.3,0.4-0.4
		c0.7-0.7,1.8-0.7,2.5-1.4c0.6-0.6,0.7-1.6,1.7-2.3C182.4,119.2,181.7,121.1,181.5,123.3z"/>
	<path class="st4" d="M173.4,122c0.6-0.1,1.2,0,1.7,0.3c0,0.7,0,1.4,0,2.3C173.7,124.1,173.8,122.9,173.4,122L173.4,122z"/>
	<path class="st4" d="M172.2,116.3c1.7,0.6,1.6,2.1,2.4,3.6C172.9,119,172.4,117.8,172.2,116.3z"/>
	<path class="st4" d="M110.7,86.8c0.3-0.8,1.1-1.2,1.1-2c0.7,0.5,1.1,0.8,1.7,1.3C112.5,86.4,111.7,86.7,110.7,86.8z"/>
	<path class="st4" d="M173.4,122c-1.6-1-1.6-1-1.5-2.3C173.9,119.5,173.2,121,173.4,122C173.4,122,173.4,122,173.4,122z"/>
	<path class="st4" d="M196.6,132.6c-0.2-1.3-0.3-2.5,0.2-3.8c0.8,0.6,0.9,1.3,1,2.1c0.6,2.6,1.5,5,2.9,7.2c0.9,1.3,0.4,2.6-0.5,3.6
		c-1.2,1.5-2.8,2.7-3.7,4.5c-0.2,0.4-0.7,0.6-1.1,0.6c-1.8,0-3.4-0.2-4.9-1.7c-1.4-1.4-2.9-3.2-5.1-3.4c-1.7-0.1-3.3,0.7-4.7,1.6
		c-0.7,0.4-1.2,1-2.1,1c0-1.8,0-3.5,0-5.1c0-0.3,0-0.7,0.2-0.8c1.4-1,2.1-3,3.8-3.5c2.1-0.6,3.6-1.7,4.2-3.8
		c0.1-0.2,0.3-0.4,0.5-0.6c0.6,0.4,0.4,1.6,1.4,1.4c0.7-0.2,0.9-0.9,1.2-1.5c0.5-1.5,1.7-1.1,2.8-1c0.5,0.1,0.6,0.4,0.5,0.9
		C192.8,132.4,194.4,133.5,196.6,132.6z"/>
	<path class="st4" d="M195.2,126.7c0.7-1.7-0.7-2.2-1.4-3c0.4-1.2,1.3-0.7,2.3-0.9C196.1,124.2,196.1,125.5,195.2,126.7z"/>
	<path class="st4" d="M199.6,125.6c-1.4-0.5-1.8,0.6-2.6,1.1c-0.7-1.1,0-2-0.1-3.1C198.1,123.8,198.9,124.3,199.6,125.6z"/>
	<path class="st4" d="M189.3,97.7c0.4-1,0-2.1,1.1-2.8C191,96.9,190.8,97.4,189.3,97.7z"/>
	<path class="st4" d="M141.3,130.7c-0.6,3-0.5,5.8-2.6,8.5c-0.3-2.1-0.5-3.8-0.7-5.4c-0.1-0.7,0.1-1.4,1-1.6
		C139.9,132,140.4,131.3,141.3,130.7z"/>
	<path class="st4" d="M119.4,70.3c0.8-0.1,1.6-0.1,2.6-0.2c-1,0.5-0.7,1.8-1.7,1.7C119.7,71.8,119.4,71.1,119.4,70.3z"/>
	<path d="M117.5,92.6c0.5,0.2,0.4,0.7,0.7,1.1c0.3,0.3,0.4,0.7,0.1,1.1c-0.2,0.2-0.4,0.2-0.7,0.1c-0.4-0.2-0.6-0.5-0.7-0.9
		C116.8,93.5,116.9,92.9,117.5,92.6z"/>
</g>
</svg>
